<?xml version="1.0" encoding="UTF-8" standalone="no"?>
<svg xmlns:dc="http://purl.org/dc/elements/1.1/" xmlns:cc="http://creativecommons.org/ns#" xmlns:rdf="http://www.w3.org/1999/02/22-rdf-syntax-ns#" xmlns:svg="http://www.w3.org/2000/svg" xmlns="http://www.w3.org/2000/svg" viewBox="0 0 158.1102 153.69011" height="153.69011" width="158.1102" xml:space="preserve" id="svg5845" version="1.1"><metadata id="metadata5851"><rdf:RDF><cc:Work rdf:about=""><dc:format>image/svg+xml</dc:format><dc:type rdf:resource="http://purl.org/dc/dcmitype/StillImage"/><dc:title/></cc:Work></rdf:RDF></metadata><defs id="defs5849"><clipPath id="clipPath5861" clipPathUnits="userSpaceOnUse"><path id="path5859" d="M 0,144 H 144 V 0 H 0 Z"/></clipPath></defs><g transform="matrix(1.3333333,0,0,-1.3333333,-11.144,172.46666)" id="g5853"><g id="g5855"><g clip-path="url(#clipPath5861)" id="g5857"><path id="path5863" style="fill:#231f20;fill-opacity:1;fill-rule:nonzero;stroke:none" d="m 28.427,99.592 c 0,-6.192 4.217,-10.439 10.253,-10.439 6.034,0 10.252,4.247 10.252,10.439 0,5.759 -3.927,10.582 -10.252,10.582 -6.326,0 -10.253,-4.823 -10.253,-10.582 m 40.572,0.288 c 0,-17.422 -13.597,-27.86 -30.319,-27.86 -16.724,0 -30.322,10.438 -30.322,27.86 0,17.061 13.67,28.148 30.322,28.148 16.65,0 30.319,-11.087 30.319,-28.148"/><path id="path5865" style="fill:none;stroke:#231f20;stroke-width:1;stroke-linecap:butt;stroke-linejoin:miter;stroke-miterlimit:4;stroke-dasharray:none;stroke-opacity:1" d="m 66.92465,14.58242 h 60"/><path id="path5867" style="fill:none;stroke:#231f20;stroke-width:1;stroke-linecap:butt;stroke-linejoin:miter;stroke-miterlimit:4;stroke-dasharray:none;stroke-opacity:1" d="m 126.44065,14.865 v 60"/><path id="path5869" style="fill:#231f20;fill-opacity:1;fill-rule:nonzero;stroke:none" d="m 105.216,97.104 c -2.401,0 -4.732,0.423 -6.99,1.271 l -0.142,2.471 c 1.482,-0.565 3.107,-0.847 4.802,-0.847 6.921,0 10.592,6.85 10.592,13.699 0,7.061 -5.013,8.615 -9.25,8.615 -2.119,0 -3.672,-0.071 -5.155,-0.212 L 92.364,84.322 c -0.14,-0.776 -0.211,-1.623 -0.211,-2.542 0,-1.13 0.423,-1.906 2.613,-2.047 l 4.166,-0.212 -0.284,-2.472 c -4.518,0.071 -7.908,0.213 -11.368,0.213 -3.672,0 -7.415,-0.142 -11.227,-0.213 l 0.283,2.472 3.459,0.212 c 0.988,0.071 1.906,0.283 2.401,1.341 0.283,0.566 0.777,1.906 1.412,5.508 l 5.79,32.624 c 0.495,2.966 -0.282,3.53 -3.107,3.672 l -3.953,0.212 0.352,2.259 c 4.378,-0.07 8.122,-0.212 11.792,-0.212 3.532,0 8.475,0.142 13.276,0.212 9.603,0.141 15.041,-3.319 15.041,-11.722 0,-9.532 -8.544,-16.523 -17.583,-16.523 M 69.339,71.75 h 57.601 v 57.6 H 69.339 Z"/><path id="path5871" style="fill:#231f20;fill-opacity:1;fill-rule:nonzero;stroke:none" d="M 11.506,71.684 V 14.083 H 27.942 V 59.211 H 39.701 V 23.932 h 14.1 v -9.849 h 15.305 v 57.601 z"/><path id="path5873" style="fill:#231f20;fill-opacity:1;fill-rule:nonzero;stroke:none" d="m 119.346,37.759 -0.023,-0.094 c -0.261,-0.317 -0.522,-0.636 -0.856,-0.808 -0.074,-0.027 -0.198,0.012 -0.176,0.133 0.227,0.344 0.584,0.557 0.847,0.874 0.084,0.013 0.172,-0.026 0.208,-0.105 m -0.783,0.265 c -0.294,-0.147 -0.494,-0.558 -0.868,-0.558 -0.011,-0.092 -0.124,-0.052 -0.172,-0.039 -0.311,0.212 0.11,0.344 0.222,0.492 0.374,0.039 0.46,0.608 0.845,0.608 l 0.088,-0.105 c 0.06,-0.147 -0.051,-0.292 -0.115,-0.398 m -1.763,0 c -0.11,0.013 -0.234,0.093 -0.285,0.212 0.45,0.291 0.87,0.715 1.356,0.954 l 0.149,-0.185 c -0.275,-0.49 -0.785,-0.73 -1.22,-0.981 m -32.072,0.08 c 0.013,-0.212 -0.199,-0.24 -0.337,-0.333 -0.855,-0.224 -1.464,-1.046 -2.396,-1.059 -0.161,-0.081 -0.348,-0.042 -0.508,-0.148 -0.163,0 -0.373,-0.158 -0.509,0.015 0.173,0.755 0.447,1.538 0.558,2.32 0.286,0.013 0.559,0.185 0.832,0.305 0.372,0.159 0.671,0.45 1.068,0.558 0.335,-0.16 0.46,-0.531 0.633,-0.875 0.149,-0.332 0.496,-0.465 0.659,-0.783 m 10.728,-1.963 c -0.211,0.172 -0.247,0.49 -0.473,0.676 -0.359,0.597 -0.731,1.22 -1.352,1.566 -0.373,0.331 -0.844,0.463 -1.266,0.741 -0.375,0.159 -0.719,0.345 -1.144,0.397 -0.843,0.266 -1.601,-0.025 -2.507,0.014 -0.225,-0.039 -0.448,-0.224 -0.658,-0.158 -0.609,0.557 -1.019,1.272 -1.515,1.936 -0.063,0.185 -0.249,0.318 -0.236,0.557 0.471,0.238 1.004,0.411 1.514,0.517 0.422,0.093 0.933,0.212 1.391,0.145 0.298,0.067 0.583,-0.079 0.883,-0.079 0.707,-0.093 1.39,-0.332 1.986,-0.782 0.286,-0.173 0.409,-0.479 0.72,-0.624 0.409,-0.477 1.007,-0.901 1.254,-1.512 0.211,-0.53 0.596,-1.008 0.782,-1.592 0,-0.29 0.348,-0.489 0.287,-0.808 0.149,-0.239 0.222,-0.556 0.358,-0.809 -0.01,-0.065 0.027,-0.145 -0.024,-0.185 m 25.318,7.015 c -0.062,-0.079 -0.099,-0.319 -0.271,-0.319 -0.248,-0.277 -0.536,-0.489 -0.795,-0.729 -0.212,0.08 -0.372,0.319 -0.497,0.518 0.011,0.092 -0.073,0.172 -0.037,0.252 0.51,0.133 1.081,0.079 1.6,0.278 M 96.512,32.084 c -0.211,1.126 -0.261,2.293 -0.372,3.434 -0.051,0.225 -0.151,0.477 -0.151,0.743 -0.322,0.583 -0.459,1.246 -0.68,1.895 -0.115,0.45 -0.461,0.782 -0.585,1.207 -0.224,0.371 -0.323,0.743 -0.608,1.021 -0.114,0.213 -0.225,0.452 -0.449,0.557 -0.372,0.399 -0.755,0.863 -1.229,1.061 -0.768,0.823 -1.886,1.048 -2.917,1.154 -0.349,-0.066 -0.784,-0.013 -1.179,-0.093 -0.387,-0.04 -0.758,-0.171 -1.143,-0.199 -0.299,-0.199 -0.672,-0.317 -1.007,-0.516 -0.073,0 -0.171,-0.067 -0.234,-0.028 -0.113,0.359 0.371,0.318 0.559,0.505 0.694,0.291 1.477,0.464 2.209,0.73 0.236,-0.028 0.534,0.051 0.72,-0.133 0.746,0.052 1.589,-0.133 2.247,-0.558 0.297,0 0.459,-0.359 0.721,-0.426 0.359,-0.223 0.696,-0.634 1.044,-0.861 0.272,-0.397 0.731,-0.649 0.892,-1.139 0.548,-0.637 0.758,-1.459 1.143,-2.202 0.037,-0.531 0.446,-0.862 0.509,-1.379 0.186,-0.451 0.212,-0.928 0.323,-1.393 -0.012,-0.518 0.175,-1.074 0.151,-1.617 0.099,-0.598 0,-1.207 0.036,-1.763 m 20.413,7.173 c -0.223,-0.186 -0.507,-0.291 -0.731,-0.464 -0.175,-0.039 -0.347,-0.252 -0.521,-0.066 -0.623,0.372 -1.242,0.783 -1.864,1.127 -0.77,0.331 -1.526,0.636 -2.36,0.755 -0.372,0.054 -0.733,0.2 -1.129,0.172 -0.558,0.121 -1.131,0.213 -1.716,0.133 -0.393,-0.012 -0.791,-0.066 -1.19,-0.053 l -0.061,0.093 c 0.184,0.584 0.569,1.101 0.756,1.672 0.273,0.172 0.597,0.186 0.87,0.357 1.042,0.359 2.074,0.77 3.178,0.903 0.685,0.105 1.181,-0.187 1.788,-0.24 0.435,-0.119 0.833,-0.397 1.281,-0.451 0.767,-1.074 1.117,-2.425 2.11,-3.421 -0.038,-0.211 -0.311,-0.318 -0.411,-0.517 M 97.704,40.53 c 0.05,-0.173 0.037,-0.384 -0.074,-0.517 0.037,-0.345 0,-0.636 -0.038,-0.968 -0.174,0.531 -0.422,1.034 -0.67,1.525 -0.187,0.424 -0.461,0.795 -0.621,1.234 -0.572,0.743 -1.354,1.299 -1.925,2.002 -0.212,0.332 -0.496,0.412 -0.745,0.689 -0.112,0.411 0.099,0.77 0.051,1.207 0.072,0.424 0.534,0.173 0.804,0.266 0.311,-0.067 0.597,-0.04 0.87,-0.199 0.547,0.012 0.909,-0.424 1.329,-0.704 0.622,-0.742 0.709,-1.764 1.044,-2.627 -0.051,-0.662 0.186,-1.285 -0.025,-1.908 m -12.12,-2.055 0.074,-0.027 c -0.011,-0.159 -0.174,-0.145 -0.259,-0.212 -0.336,0.172 -0.461,0.491 -0.71,0.769 -1.054,1.485 -1.851,3.196 -2.347,4.986 -0.061,0.411 -0.283,0.81 -0.396,1.181 -0.075,0.278 -0.186,0.543 -0.099,0.848 0.273,0.16 0.248,-0.251 0.36,-0.384 0.087,-0.451 0.223,-0.889 0.398,-1.3 0.296,-0.981 0.646,-1.922 1.079,-2.838 0.149,-0.252 0.298,-0.477 0.484,-0.717 0.374,-0.702 0.845,-1.232 1.167,-1.961 l 0.312,-0.293 z m 0.957,0.331 c 0.012,-0.159 -0.124,-0.146 -0.225,-0.185 -0.395,0.158 -0.534,0.623 -0.756,0.967 -0.486,0.663 -0.907,1.42 -1.33,2.069 -0.284,0.544 -0.433,1.114 -0.745,1.644 l -0.049,0.279 c -0.162,0.782 -0.681,1.433 -0.745,2.216 0.014,0.237 -0.249,0.596 0.038,0.715 0.21,-0.119 0.25,-0.491 0.296,-0.663 0.175,-0.743 0.435,-1.432 0.621,-2.149 0.138,-0.039 0.176,-0.199 0.201,-0.317 l -0.039,-0.04 c 0.337,-0.583 0.597,-1.247 0.933,-1.844 0.247,-0.544 0.67,-1.06 0.954,-1.579 0.335,-0.29 0.574,-0.729 0.846,-1.113 m 12.02,-3.262 c -0.013,-0.039 -0.061,-0.039 -0.088,-0.08 -0.285,0.491 0.011,1.061 -0.187,1.593 -0.122,0.714 -0.134,1.431 -0.173,2.187 0.075,0.503 -0.024,1.087 0.101,1.592 -0.077,0.596 0.072,1.259 -0.077,1.868 -0.098,0.545 -0.222,1.049 -0.408,1.58 -0.151,0.198 -0.237,0.41 -0.335,0.635 l 0.035,0.054 c -0.259,0.145 -0.333,0.53 -0.559,0.715 l 0.026,0.027 c -0.496,0.345 -0.993,0.624 -1.625,0.637 0.023,0.053 -0.026,0.066 -0.062,0.08 -0.435,-0.014 -0.859,0.145 -1.293,0.066 -0.062,0.04 -0.062,0.173 0,0.198 0.485,0.093 0.995,0 1.465,-0.172 0.597,-0.092 1.328,-0.252 1.726,-0.782 0.322,-0.199 0.461,-0.544 0.707,-0.836 0.412,-0.729 0.422,-1.591 0.635,-2.374 0.149,-2.333 0,-4.668 0.112,-6.988 m -12.107,4.973 c 0.223,-0.49 0.782,-0.809 0.933,-1.352 -0.039,-0.094 -0.126,-0.214 -0.25,-0.16 -0.521,0.544 -0.97,1.207 -1.391,1.856 l -0.099,0.053 c -0.312,0.278 -0.262,0.743 -0.584,1.035 -0.41,1.008 -1.005,1.989 -1.179,3.116 -0.137,0.133 -0.062,0.372 -0.249,0.478 -0.087,0.465 -0.348,0.915 -0.274,1.379 0.138,0.172 0.248,-0.04 0.274,-0.159 v -0.147 c -0.026,0 -0.051,0.015 -0.062,-0.012 0.249,-0.08 0.111,-0.372 0.26,-0.518 0.349,-1.193 0.832,-2.374 1.291,-3.5 0.398,-0.73 0.845,-1.433 1.33,-2.069 m 19.246,6.459 c -0.161,-0.929 -0.123,-1.924 -0.495,-2.825 -0.125,-0.054 -0.036,-0.173 -0.1,-0.279 -0.434,-0.98 -0.894,-1.896 -1.541,-2.746 -0.272,-0.37 -0.57,-0.835 -0.892,-1.192 l -0.075,-0.172 c -0.47,-0.651 -1.28,-1.102 -1.752,-1.738 l -0.086,0.027 c -0.024,0.915 0.061,1.829 0.086,2.744 -0.037,0.425 0.051,0.796 0.101,1.247 0.595,1.181 1.403,2.254 2.296,3.195 0.733,0.691 1.565,1.207 2.321,1.884 0.087,0 0.137,-0.066 0.137,-0.145 M 99.343,41.87 c 0.099,-0.835 0.113,-1.752 0.036,-2.573 l -0.036,-0.04 c 0.051,-0.822 0.011,-1.817 0.025,-2.626 -0.087,-0.052 -0.149,-0.146 -0.248,-0.067 -0.052,0.04 0.011,0.082 0.026,0.106 -0.202,0.307 -0.04,0.664 -0.087,1.01 -0.051,0.808 0.009,1.643 0,2.438 0.024,1.05 -0.1,2.07 -0.239,3.116 -0.073,0.664 -0.297,1.274 -0.481,1.898 -0.264,0.185 -0.237,0.531 -0.424,0.755 -0.634,0.611 -1.415,0.928 -2.198,1.116 -0.161,0.012 -0.347,0.039 -0.508,0.091 -0.397,-0.106 -0.796,0.16 -1.194,0.027 -0.149,0 -0.013,0.146 -0.049,0.238 0.111,0.147 0.31,0.04 0.483,0.028 0.584,-0.094 1.168,-0.067 1.765,-0.173 0.672,-0.159 1.364,-0.41 1.875,-0.889 0.546,-0.769 0.994,-1.684 1.057,-2.665 0.022,-0.61 0.321,-1.167 0.197,-1.79 m 17.545,4.668 c 0.013,0.357 -0.026,0.729 0.186,0.994 0.236,0.027 0.138,-0.318 0.161,-0.464 -0.049,-0.225 -0.01,-0.557 -0.21,-0.65 -0.075,0 -0.112,0.054 -0.137,0.12 m -0.818,0.371 c -0.015,0.251 0.074,0.503 0.149,0.73 0.146,0.066 0.199,-0.16 0.272,-0.24 -0.148,-0.264 -0.012,-0.544 -0.148,-0.795 -0.124,-0.12 -0.186,0.012 -0.262,0.092 0.014,0.093 0.051,0.147 -0.011,0.213 m -0.782,0.013 c -0.162,0.305 0.022,0.623 0.086,0.889 0.123,0.119 0.123,-0.08 0.224,-0.121 l -0.087,-0.768 c -0.075,-0.04 -0.151,-0.04 -0.223,0 m -14.194,-3.621 -0.148,-0.106 0.049,-0.039 -0.138,-0.093 c -0.023,0.292 -0.098,0.625 0.125,0.848 0.622,0.796 1.315,1.486 1.973,2.23 0.884,0.596 1.728,1.232 2.571,1.855 0.063,0 0.124,0 0.124,-0.079 0.026,-0.227 -0.198,-0.318 -0.321,-0.425 -0.683,-0.225 -1.045,-0.861 -1.714,-1.127 l -0.521,-0.412 c -0.372,-0.516 -0.845,-0.928 -1.205,-1.445 -0.348,-0.331 -0.622,-0.769 -0.795,-1.207 m -16.626,2.586 c -0.162,0.478 -0.422,1.035 -0.336,1.566 0.162,0.106 0.36,0.225 0.533,0.385 0.758,0.37 1.713,0.436 2.522,0.132 0.223,-0.106 0.508,-0.147 0.669,-0.331 0.906,-0.332 1.714,-0.968 2.682,-1.141 0.088,-0.12 0.063,-0.332 0.075,-0.518 -0.123,-0.211 -0.335,-0.132 -0.509,-0.079 -0.534,0 -1.032,0.027 -1.552,-0.081 -0.198,0.028 -0.397,-0.051 -0.597,-0.091 -0.236,-0.014 -0.483,0 -0.646,-0.186 -0.843,-0.173 -1.589,-0.57 -2.357,-0.929 -0.099,0.041 -0.099,0.067 -0.111,0.159 -0.188,0.332 -0.276,0.73 -0.373,1.114 m 15.781,-3.367 c 0.013,-1.499 0.037,-3.249 0.024,-4.776 -0.024,-0.157 -0.073,-0.396 -0.283,-0.45 -0.113,0.172 -0.015,0.359 -0.026,0.531 0.026,0.822 -0.113,1.71 0.062,2.466 -0.013,0.623 -0.098,1.273 -0.149,1.857 0.136,0.888 -0.359,1.671 -0.398,2.546 -0.136,0.252 -0.161,0.571 -0.333,0.836 l -0.04,0.239 c -0.422,0.583 -0.82,1.192 -1.402,1.564 -0.423,0.026 -0.795,0.318 -1.192,0.398 -0.261,0.212 -0.646,0.107 -0.945,0.239 -0.546,0.04 -1.004,-0.014 -1.502,0.159 -0.086,0.093 -0.036,0.145 -0.05,0.238 0.325,-0.052 0.759,0.133 1.117,-0.052 0.994,-0.132 1.987,-0.213 2.857,-0.716 0.559,-0.187 0.919,-0.704 1.204,-1.234 0.212,-0.412 0.336,-0.822 0.534,-1.233 0.124,-0.597 0.325,-1.207 0.398,-1.817 0.026,-0.279 0.137,-0.503 0.124,-0.795 m 0.372,1.921 0.026,0.253 c 0.558,0.703 1.106,1.447 1.776,2.055 0.671,0.411 1.13,1.128 1.837,1.485 l 1.141,0.691 0.138,-0.04 c -0.907,-0.742 -1.839,-1.459 -2.732,-2.202 -0.371,-0.476 -0.844,-0.703 -1.155,-1.153 -0.136,-0.332 -0.458,-0.438 -0.583,-0.769 -0.235,-0.027 -0.224,-0.425 -0.448,-0.32 m 0,1.036 c -0.124,-0.027 -0.149,-0.186 -0.284,-0.186 -0.137,0.385 0.299,0.584 0.398,0.875 0.397,0.571 0.869,1.141 1.412,1.473 0.87,0.848 1.914,1.551 3.032,1.923 h 0.089 c 0,-0.081 -0.063,-0.161 -0.139,-0.2 -0.187,0.039 -0.272,-0.212 -0.446,-0.16 -0.572,-0.489 -1.428,-0.729 -1.951,-1.404 -0.172,-0.266 -0.496,-0.531 -0.806,-0.743 -0.596,-0.411 -0.882,-1.022 -1.305,-1.578 m 8.358,3.023 c 0.162,0.16 0.422,0.133 0.621,0.213 0.782,0.291 1.551,0.835 2.197,1.232 0.139,-0.238 0.36,-0.437 0.584,-0.583 0.447,-0.57 1.043,-0.862 1.665,-1.088 0.235,-0.172 0.471,-0.172 0.72,-0.304 0.111,-0.093 -0.051,-0.199 0.024,-0.319 0.013,-0.172 0,-0.411 -0.162,-0.504 -0.472,0.16 -1.017,0.212 -1.49,0.252 -0.495,0.186 -1.079,0.04 -1.625,0.067 -0.834,-0.159 -1.553,-0.439 -2.335,-0.69 l -0.099,0.053 c 0.036,0.583 -0.237,1.088 -0.1,1.671 m -14.715,0.491 c -0.125,0.159 -0.1,0.318 -0.038,0.49 0.249,0.823 0.486,1.632 0.968,2.295 0.2,-0.106 0.176,-0.398 0.299,-0.584 0,-0.423 0.298,-0.663 0.31,-1.073 0.026,-0.359 0.136,-0.757 0.136,-1.194 -0.248,-0.187 -0.532,-0.04 -0.78,-0.013 -0.311,0 -0.647,-0.015 -0.895,0.079 m 1.675,2.679 c -0.122,0.239 -0.42,0.504 -0.372,0.796 0.05,0.079 0.1,0.026 0.187,0.04 0.263,-0.293 0.372,-0.718 0.547,-1.074 l 0.36,-1.168 -0.039,-0.093 c 0.113,-0.052 0.039,-0.251 0.124,-0.345 -0.011,-0.385 0.124,-0.757 0.124,-1.154 -0.061,-0.067 -0.209,-0.078 -0.248,0.014 -0.21,0.968 -0.234,2.055 -0.683,2.984 m 0.226,1.273 c -0.101,0.093 -0.025,0.398 0.16,0.331 0.498,-0.875 0.845,-1.791 1.142,-2.771 0.176,-0.332 0.013,-0.77 0.248,-1.102 0.051,-0.304 0.113,-0.688 0,-0.967 -0.048,-0.067 -0.123,-0.013 -0.172,0.013 -0.275,0.557 -0.098,1.194 -0.299,1.75 -0.125,0.717 -0.41,1.392 -0.633,2.03 -0.174,0.212 -0.25,0.517 -0.446,0.716 m 1.378,-0.756 c -0.262,0.596 -0.673,1.114 -0.808,1.71 0.198,-0.079 0.248,-0.331 0.372,-0.517 0.287,-0.265 0.399,-0.651 0.659,-0.929 0.359,-0.901 0.609,-1.829 0.718,-2.784 -0.098,-0.517 0.213,-1.087 -0.048,-1.538 -0.235,0.133 -0.123,0.437 -0.15,0.637 -0.05,0.476 -0.161,0.901 -0.173,1.392 -0.174,0.69 -0.32,1.364 -0.57,2.029 m 1.516,-1.247 c 0.445,0.531 1.066,0.848 1.489,1.379 0.682,0.61 1.415,1.101 2.184,1.592 0.188,0.053 0.223,-0.172 0.285,-0.265 0.585,-1.14 1.355,-2.135 1.987,-3.25 0.051,-0.159 -0.073,-0.277 -0.197,-0.332 -0.944,-0.277 -1.801,-0.928 -2.619,-1.537 -0.211,-0.121 -0.386,-0.384 -0.635,-0.451 -0.534,-0.623 -1.042,-1.272 -1.515,-1.935 -0.348,0.423 -0.659,0.914 -0.97,1.391 0.038,0.146 -0.024,0.279 0.078,0.398 0.073,1.008 -0.175,2.043 -0.087,3.01 m 8.716,-7.385 c -0.225,-0.691 -0.472,-1.407 -0.807,-2.07 -0.075,-0.251 -0.248,-0.544 -0.424,-0.769 -0.073,-0.027 -0.197,-0.186 -0.26,-0.027 0.224,1.075 1.019,1.949 1.266,3.01 0.299,0.651 0.496,1.38 0.583,2.097 0.062,0.953 0.078,2.027 -0.072,3.036 -0.125,0.278 -0.113,0.649 -0.299,0.875 -0.212,0.941 -0.67,1.843 -1.155,2.626 -0.584,0.756 -1.107,1.524 -1.588,2.32 -0.113,0.133 -0.162,0.318 -0.151,0.478 0.074,0.039 0.088,0.133 0.187,0.105 0.114,-0.132 0.213,-0.317 0.322,-0.423 0.584,-0.729 1.106,-1.525 1.678,-2.268 0.223,-0.636 0.509,-1.233 0.794,-1.83 0.223,-0.57 0.383,-1.193 0.508,-1.818 0.163,-0.742 0.038,-1.538 0.101,-2.293 l -0.087,-0.16 0.087,-0.039 c -0.015,-0.968 -0.212,-1.883 -0.573,-2.706 z m 17.396,-11.447 c 0.125,-0.118 0.098,-0.33 0.062,-0.477 -0.409,-0.172 -0.795,-0.277 -1.254,-0.211 -0.411,-0.026 -0.846,0.079 -1.267,0.079 -1.029,0.066 -2.074,0.491 -3.004,0.69 -0.683,0.304 -1.392,0.664 -2.038,0.968 -0.808,0.795 -1.85,1.207 -2.72,1.883 -0.085,0.251 -0.322,0.345 -0.519,0.504 -0.461,0.292 -0.921,0.65 -1.456,0.756 -0.769,0.397 -1.599,0.729 -2.382,1.034 -0.633,0.265 -1.266,0.066 -1.887,0.213 -0.573,-0.12 -1.28,-0.04 -1.764,-0.425 -0.471,-0.12 -0.882,-0.345 -1.327,-0.491 -1.119,-0.756 -1.963,-1.909 -2.821,-2.984 -0.347,-0.503 -0.398,-1.14 -0.667,-1.684 -0.126,-0.65 -0.126,-1.26 -0.227,-1.936 -0.21,-0.145 -0.062,-0.451 -0.147,-0.636 -0.015,-0.583 -0.051,-1.115 0.024,-1.711 l -0.039,-0.2 c 0.077,-0.941 -0.097,-1.869 -0.073,-2.797 -0.1,-0.133 -0.262,-0.092 -0.371,-0.039 -0.325,0.848 -0.027,1.79 -0.263,2.665 0.101,0.105 0.063,0.371 0.113,0.41 0.024,0.478 0.123,0.877 0.15,1.301 h -0.051 c 0.087,0.716 0.148,1.459 0.273,2.188 l -0.05,0.014 0.061,0.066 c 0.051,0.557 0.038,1.086 0.362,1.525 0.136,0.502 0.347,1.006 0.695,1.392 0.52,0.438 0.609,1.101 1.178,1.484 0.547,0.558 1.169,1.128 1.777,1.487 l 0.013,0.079 c 0.672,0.41 1.466,0.556 2.161,0.821 0.658,-0.079 1.326,0.12 1.987,0.014 0.111,-0.08 0.285,0.014 0.42,-0.066 0.609,-0.04 1.154,-0.332 1.713,-0.477 0.263,-0.147 0.61,-0.173 0.81,-0.479 0.447,-0.091 0.894,-0.371 1.34,-0.516 0.857,-0.531 1.59,-1.3 2.445,-1.79 0.537,-0.225 0.908,-0.73 1.443,-0.968 0.692,-0.425 1.439,-0.717 2.148,-1.074 0.21,-0.16 0.484,-0.186 0.718,-0.199 1.118,-0.492 2.484,-0.492 3.678,-0.558 0.249,0.079 0.544,0.106 0.756,0.145 m 0.098,0.624 c -0.01,-0.119 -0.024,-0.264 -0.148,-0.304 -0.72,0.04 -1.441,-0.027 -2.135,0.065 -0.697,0.094 -1.427,0.187 -2.15,0.345 -1.128,0.345 -2.221,0.995 -3.313,1.526 -0.635,0.345 -1.095,0.836 -1.667,1.273 -0.891,0.729 -1.835,1.406 -2.905,1.803 -0.471,0.319 -0.993,0.531 -1.538,0.65 l -0.037,0.066 c -0.449,0.186 -1.019,0.08 -1.442,0.332 -0.358,0 -0.682,0.079 -1.041,0.053 -0.35,-0.066 -0.733,0 -1.033,-0.172 -0.706,-0.053 -1.365,-0.306 -1.999,-0.664 -0.672,-0.092 -1.178,-0.662 -1.775,-0.993 -0.671,-0.359 -1.006,-1.102 -1.539,-1.645 -0.26,-0.358 -0.447,-0.784 -0.77,-1.074 -0.374,-0.545 -0.436,-1.287 -0.52,-1.964 -0.188,-1.218 -0.213,-2.678 -0.423,-3.832 -0.014,-0.238 0,-0.53 0.011,-0.768 l 0.074,-0.107 c -0.123,-0.822 -0.085,-1.658 -0.184,-2.454 0.135,-0.133 0.024,-0.264 -0.099,-0.318 -0.088,-0.013 -0.176,-0.039 -0.248,0.013 -0.2,0.452 0,0.968 -0.065,1.446 0.225,0.888 0.065,1.817 0.087,2.76 0.101,0.264 0.05,0.502 0.15,0.807 0.037,1.022 0.211,2.188 0.31,3.223 0.149,0.862 0.511,1.631 1.056,2.335 0.558,0.489 0.905,1.272 1.526,1.723 0.361,0.278 0.684,0.636 1.08,0.874 0.424,0.188 0.834,0.306 1.243,0.492 0.137,-0.014 0.222,0.146 0.347,0.185 0.733,0.331 1.53,0.438 2.336,0.61 0.36,0.093 0.769,0 1.142,0.041 l 0.172,-0.08 c 0.573,0 1.068,-0.24 1.653,-0.265 0.199,-0.159 0.46,-0.12 0.659,-0.239 0.41,-0.133 0.744,-0.358 1.129,-0.583 0.409,-0.148 0.77,-0.266 1.154,-0.438 0.683,-0.651 1.541,-1.035 2.199,-1.751 0.347,-0.239 0.732,-0.557 1.118,-0.809 0.408,-0.172 0.818,-0.398 1.205,-0.623 v -0.04 c 0.434,-0.225 0.843,-0.478 1.34,-0.531 0.435,-0.264 0.932,-0.278 1.393,-0.411 0.743,0.054 1.448,-0.37 2.194,-0.237 0.374,-0.015 0.759,0 1.157,0.039 0.186,0.04 0.296,-0.159 0.296,-0.359 m -54.443,2.335 0.094,0.079 C 70.87,35.108 70.839,35.083 70.826,35.067 M 96.042,58.58 c 0.002,-0.024 0.009,-0.073 -0.016,-0.055 0.006,0.015 0.01,0.033 0.016,0.055 m 29.625,-20.649 c -0.434,-0.054 -0.818,0.199 -1.252,0.079 -0.3,0.133 -0.621,0.053 -0.921,0.199 -0.533,0.119 -1.005,0.397 -1.527,0.597 -0.284,0.093 -0.448,0.332 -0.719,0.411 -0.634,0.557 -1.205,1.194 -1.839,1.737 v 0.067 c -0.271,0.105 -0.173,0.464 -0.434,0.61 l 0.038,0.026 -0.335,0.331 c -0.139,0.306 -0.449,0.532 -0.461,0.89 0.161,0.039 0.346,0.039 0.434,-0.133 0.3,-0.703 0.87,-1.247 1.305,-1.831 0.906,-1.152 2.123,-2.002 3.526,-2.308 0.659,-0.158 1.342,-0.278 2.025,-0.383 l 0.137,0.066 c 0,0.146 0.06,0.371 -0.063,0.478 -0.496,0.092 -1.006,0.079 -1.503,0.238 -0.596,0 -1.08,0.385 -1.627,0.53 -0.099,0.053 -0.286,0.173 -0.148,0.306 0.893,0.915 1.998,1.499 2.993,2.267 -0.075,0.12 -0.063,0.345 -0.25,0.358 -0.583,-0.212 -1.08,-0.65 -1.638,-0.942 -0.51,-0.45 -1.067,-0.887 -1.589,-1.351 l -0.322,-0.107 c -0.089,0.027 -0.185,0.107 -0.201,0.225 0.248,0.438 0.697,0.545 1.045,0.835 0.72,0.704 1.638,1.128 2.483,1.658 0.111,0.067 0.297,0.199 0.197,0.385 -0.062,0.132 -0.211,0.279 -0.347,0.173 -0.619,-0.425 -1.304,-0.743 -1.924,-1.181 -0.461,-0.252 -0.845,-0.609 -1.278,-0.902 -0.188,-0.212 -0.41,-0.411 -0.647,-0.57 -0.062,0.081 -0.287,0.186 -0.15,0.319 0.398,0.251 0.637,0.742 1.094,0.901 0.794,0.662 1.676,1.194 2.544,1.724 0.15,0.133 0.449,0.094 0.449,0.386 0,0.158 -0.114,0.21 -0.223,0.291 -0.932,-0.345 -1.738,-1.009 -2.546,-1.526 -0.412,-0.224 -0.672,-0.556 -1.096,-0.742 -0.16,-0.266 -0.482,-0.438 -0.692,-0.65 -0.062,0.106 -0.137,0.16 -0.113,0.318 l 1.241,1.074 c 0.821,0.571 1.615,1.194 2.523,1.578 0.171,0.187 0.507,0.16 0.57,0.425 -0.011,0.147 -0.161,0.226 -0.26,0.292 -0.51,-0.12 -0.895,-0.438 -1.354,-0.663 -0.373,-0.054 -0.596,-0.358 -0.957,-0.358 -0.669,-0.16 -1.352,-0.252 -2.011,-0.464 -0.311,0.039 -0.67,0 -1.006,0.027 -0.15,-0.094 -0.299,0.039 -0.422,-0.055 -0.56,0.067 -1.106,0.04 -1.663,0.094 -0.609,0.185 -1.205,0.093 -1.815,0.359 -0.235,-0.014 -0.434,0.199 -0.668,0.238 -0.078,-0.08 -0.114,0.066 -0.174,0 -0.1,0.079 -0.199,0.013 -0.287,0.105 -0.422,0.107 -0.907,0.173 -1.341,0.16 -0.372,0.04 -0.769,-0.16 -1.168,-0.106 -0.506,-0.173 -1.041,-0.173 -1.564,-0.438 l -0.036,0.053 c -0.062,-0.159 -0.199,-0.026 -0.225,-0.172 -0.396,0.013 -0.684,-0.319 -1.041,-0.359 l 0.009,0.227 c 0.015,0.225 0.249,0.225 0.387,0.304 0.795,0.173 1.539,0.543 2.309,0.716 0.658,0.026 1.355,0.332 2.023,0.106 0.87,-0.092 1.604,-0.437 2.446,-0.557 0.933,-0.238 1.838,-0.424 2.831,-0.358 0.574,-0.199 1.12,0.027 1.704,-0.027 0.432,0.133 0.893,0.24 1.301,0.399 0.461,0.185 0.983,0.198 1.368,0.543 -0.011,0.16 -0.087,0.305 -0.199,0.412 -0.93,-0.226 -1.876,-0.61 -2.782,-0.824 -1.044,-0.012 -2.073,0.081 -3.104,0.187 -0.384,0.093 -0.833,0.145 -1.242,0.239 -0.248,0.118 -0.571,0.079 -0.795,0.225 -0.607,0.145 -1.202,0.265 -1.812,0.385 -0.273,0.053 -0.485,0.026 -0.757,-0.013 -0.411,-0.107 -0.832,-0.067 -1.218,-0.147 -0.644,-0.225 -1.34,-0.516 -2.049,-0.662 l -0.075,0.052 c -0.01,0.12 0.039,0.212 0.114,0.278 0.879,0.293 1.801,0.532 2.669,0.824 0.174,0.105 0.385,-0.028 0.545,0.119 0.622,0.132 1.267,-0.119 1.876,-0.213 0.199,-0.185 0.448,-0.133 0.634,-0.305 0.77,-0.185 1.564,-0.345 2.323,-0.517 0.706,-0.186 1.623,-0.092 2.344,-0.12 0.387,0.028 0.808,0.212 1.194,0.212 0.558,0.028 1.03,0.385 1.564,0.518 0.123,0.185 0.484,0.199 0.409,0.53 -0.063,0.093 -0.11,0.239 -0.21,0.266 -0.398,-0.199 -0.784,-0.358 -1.194,-0.53 -0.185,0.04 -0.335,-0.081 -0.495,-0.081 -0.223,-0.238 -0.609,-0.199 -0.895,-0.291 -0.111,0.067 -0.234,0 -0.334,-0.052 -0.845,0.065 -1.702,-0.067 -2.533,0.132 -0.074,-0.027 -0.051,0.053 -0.074,0.079 l -0.05,-0.026 c -0.187,0.239 -0.498,0.106 -0.695,0.239 -1.205,0.184 -2.337,0.755 -3.565,0.769 -0.733,-0.066 -1.428,-0.319 -2.161,-0.425 -0.397,-0.145 -0.819,-0.344 -1.242,-0.425 -0.124,0.121 0.063,0.24 0.036,0.359 0.424,0.292 0.971,0.318 1.407,0.517 0.42,0.24 0.979,0.24 1.426,0.318 0.483,0.16 0.894,-0.053 1.402,-0.067 0.4,-0.026 0.908,-0.052 1.268,-0.238 0.209,0.014 0.385,-0.159 0.596,-0.212 1.019,-0.224 2.048,-0.743 3.141,-0.596 0.348,-0.213 0.77,-0.027 1.144,0.012 0.832,0.015 1.514,0.371 2.282,0.597 0.114,0.133 0.511,0.12 0.337,0.385 -0.101,0.119 -0.125,0.372 -0.337,0.279 -0.683,-0.346 -1.351,-0.637 -2.121,-0.677 -0.212,-0.146 -0.436,0.027 -0.633,-0.146 l -1.08,0.066 c -0.089,0.028 -0.225,0.04 -0.187,0.199 0.223,0.239 0.061,0.676 0.136,0.955 1.03,0.332 2.123,0.372 3.155,0.81 0.421,0.265 0.956,0.146 1.289,0.583 -0.023,0.132 -0.048,0.292 -0.16,0.358 -0.881,-0.16 -1.601,-0.676 -2.52,-0.769 -0.943,-0.08 -1.852,-0.386 -2.794,-0.266 -0.87,0.212 -1.84,0.199 -2.658,0.663 -0.198,0.067 -0.312,0.332 -0.546,0.292 -0.448,0.305 -1.043,0.65 -1.205,1.233 0.584,-0.464 1.156,-0.981 1.862,-1.259 0.671,-0.199 1.379,-0.398 2.1,-0.518 1.103,-0.171 2.235,-0.066 3.277,0.226 0.783,0.146 1.628,0.277 2.334,0.676 0.138,0.16 0,0.292 -0.062,0.438 -0.756,-0.093 -1.44,-0.531 -2.208,-0.557 -0.214,0.052 -0.462,-0.265 -0.622,-0.026 l -0.026,-0.121 c -0.31,-0.133 -0.658,-0.052 -0.967,-0.198 -0.485,0.146 -1.056,-0.079 -1.491,0.132 -0.67,-0.091 -1.228,0.345 -1.888,0.372 -0.434,0.133 -0.855,0.398 -1.192,0.663 -0.211,0.212 -0.596,0.332 -0.646,0.649 0.05,0.054 0.087,0.107 0.162,0.08 0.509,-0.384 1.105,-0.624 1.628,-0.968 0.656,-0.37 1.392,-0.319 2.111,-0.476 0.109,0.172 0.284,0 0.421,0.078 0.67,-0.133 1.353,0.159 2,0.173 0.372,0.133 0.72,0.133 1.13,0.225 0.347,0.265 0.944,0.093 1.24,0.464 0,0.16 -0.047,0.359 -0.196,0.412 -1.205,-0.359 -2.437,-0.451 -3.653,-0.689 -1.117,0.091 -2.247,0.078 -3.228,0.622 -0.399,0.279 -0.895,0.398 -1.154,0.809 0.05,0.12 0.05,0.332 0.224,0.304 l 0.559,-0.356 c 0.308,-0.054 0.546,-0.346 0.842,-0.438 0.684,-0.2 1.38,-0.464 2.112,-0.438 0.434,-0.159 0.957,-0.053 1.417,-0.04 0.508,0.066 1.042,0.187 1.561,0.226 0.461,0.159 1.008,0.132 1.407,0.411 0.037,0.146 -0.027,0.318 -0.102,0.451 -0.16,0.079 -0.271,-0.093 -0.42,-0.039 -0.697,-0.293 -1.443,-0.332 -2.225,-0.439 -0.249,0.199 0.013,0.53 0.077,0.784 0.085,0.635 0.357,1.232 0.558,1.842 l -0.124,0.185 c -0.137,0.081 -0.261,0.081 -0.386,-0.039 -0.335,-0.902 -0.561,-1.857 -0.844,-2.745 -0.113,-0.039 -0.211,-0.08 -0.299,0.04 0.162,1.008 0.66,1.975 0.908,2.997 -0.025,0.184 -0.211,0.173 -0.336,0.212 -0.36,-0.133 -0.249,-0.65 -0.448,-0.943 -0.372,-0.555 -0.409,-1.218 -0.608,-1.829 -0.06,-0.159 -0.085,-0.451 -0.334,-0.437 -0.062,0.026 -0.162,0.053 -0.136,0.158 0.161,1.194 0.818,2.269 1.128,3.369 -0.174,0.052 -0.422,0.239 -0.571,0.027 -0.124,-0.637 -0.483,-1.18 -0.67,-1.791 -0.238,-0.49 -0.26,-1.074 -0.471,-1.578 -0.088,-0.093 -0.161,0.039 -0.238,0.067 -0.148,0.172 0.051,0.357 0.026,0.556 0.274,0.942 0.683,1.884 1.081,2.786 0.049,0.132 0.049,0.331 -0.124,0.357 -0.1,0.04 -0.224,0.026 -0.299,-0.04 -0.523,-0.928 -0.919,-1.896 -1.204,-2.917 -0.037,-0.172 -0.037,-0.41 -0.163,-0.57 -0.273,-0.079 -0.496,0.16 -0.744,0.238 -0.186,0.319 -0.93,0.386 -0.559,0.902 0.335,0.663 0.596,1.327 0.957,1.963 0.224,0.756 0.919,1.193 1.142,1.936 0.012,0.146 -0.113,0.199 -0.223,0.239 -0.31,0.145 -0.387,-0.266 -0.596,-0.411 -0.361,-0.637 -0.633,-1.3 -1.056,-1.936 -0.484,-1.114 -1.019,-2.215 -1.515,-3.315 -0.472,-0.491 -0.97,-0.783 -1.503,-1.113 -0.57,-0.585 -1.329,-0.785 -2.011,-1.128 l -0.187,0.052 c -0.086,0.04 -0.023,0.147 0,0.199 0.273,0.159 0.571,0.304 0.869,0.398 0.486,0.133 0.794,0.49 1.231,0.756 0.497,0.385 1.018,0.729 1.415,1.247 0.26,0.277 0.235,0.623 0.483,0.874 0.211,0.663 0.51,1.34 0.834,1.964 0.444,0.954 1.03,1.856 1.489,2.77 -0.049,0.106 -0.187,0.172 -0.299,0.187 -0.259,0.04 -0.197,-0.319 -0.434,-0.385 -0.285,-0.677 -0.669,-1.287 -1.031,-1.923 -0.42,-0.516 -0.482,-1.233 -0.77,-1.83 -0.235,-0.397 -0.372,-0.849 -0.619,-1.22 -0.1,-0.185 -0.237,-0.398 -0.423,-0.451 -0.734,-0.649 -1.552,-1.259 -2.483,-1.538 -0.188,-0.039 -0.36,-0.425 -0.522,-0.199 -0.013,0.105 -0.052,0.186 0.036,0.266 1.168,0.423 2.174,1.232 3.131,2.082 0.248,0.371 0.46,0.796 0.657,1.206 0.249,0.822 0.546,1.579 0.958,2.32 0.173,0.332 0.422,0.65 0.558,0.982 0.1,0.305 0.496,0.491 0.36,0.835 -0.113,0.028 -0.211,0.147 -0.36,0.08 -0.585,-0.503 -0.82,-1.287 -1.144,-1.963 -0.471,-0.782 -0.606,-1.724 -1.041,-2.52 -0.05,-0.144 -0.262,-0.238 -0.273,-0.397 -0.574,-0.424 -0.994,-1.035 -1.615,-1.393 -0.386,-0.119 -0.635,-0.451 -1.019,-0.57 -0.185,0.013 -0.336,-0.291 -0.522,-0.106 -0.161,0.133 0.098,0.212 0.149,0.319 0.472,0.212 0.92,0.504 1.366,0.768 1.119,0.782 1.864,2.069 2.26,3.29 0.089,0.423 0.386,0.769 0.486,1.193 0.271,0.517 0.658,1.021 0.943,1.551 -0.098,0.067 -0.186,0.24 -0.347,0.173 -0.647,-0.769 -1.118,-1.644 -1.442,-2.599 -0.321,-0.412 -0.435,-0.995 -0.683,-1.392 -0.385,-0.518 -0.708,-1.155 -1.243,-1.5 -0.246,-0.265 -0.682,-0.265 -0.817,-0.649 l -0.734,-0.358 -0.074,0.027 c 0.285,0.689 0.533,1.391 0.895,2.054 0.31,0.611 0.808,1.089 1.241,1.658 0.659,0.451 1.156,1.115 1.849,1.525 0.114,0.133 -0.074,0.293 -0.186,0.359 -0.173,0.118 -0.284,-0.133 -0.459,-0.146 -0.746,-0.597 -1.466,-1.233 -2.111,-1.936 -0.148,-0.253 -0.36,-0.371 -0.436,-0.623 -0.297,-0.372 -0.445,-0.77 -0.631,-1.194 -0.15,-0.385 -0.312,-0.769 -0.523,-1.141 -0.11,0.014 -0.172,0.08 -0.259,0.159 -0.024,0.226 0.099,0.477 0.286,0.624 0.546,0.942 1.018,1.95 1.737,2.771 0.682,0.729 1.377,1.459 2.247,1.923 0.125,0.119 -0.011,0.279 -0.111,0.344 -0.309,0.213 -0.583,-0.159 -0.858,-0.237 v -0.08 c -0.383,-0.279 -0.807,-0.663 -1.079,-0.969 -0.347,-0.039 -0.298,-0.451 -0.546,-0.608 -0.497,-0.519 -0.808,-1.05 -1.206,-1.647 -0.123,-0.489 -0.594,-0.767 -0.708,-1.271 -0.035,-0.066 -0.122,-0.107 -0.171,-0.041 -0.113,0.491 0.409,0.796 0.496,1.246 0.433,0.585 0.781,1.248 1.29,1.791 0.15,0.491 0.609,0.77 0.946,1.074 0.482,0.544 1.104,0.809 1.613,1.325 0.012,0.148 -0.062,0.241 -0.149,0.32 -0.348,0.173 -0.534,-0.266 -0.807,-0.359 -0.237,-0.357 -0.646,-0.504 -0.957,-0.781 -0.198,-0.332 -0.583,-0.451 -0.745,-0.796 -0.433,-0.477 -0.733,-1.049 -1.142,-1.512 -0.151,-0.399 -0.496,-0.704 -0.647,-1.115 -0.147,-0.185 -0.173,-0.436 -0.372,-0.543 -0.284,0.146 0.025,0.358 0.025,0.543 0.635,0.955 1.229,1.91 1.924,2.813 0.374,0.278 0.596,0.768 1.019,0.941 0.471,0.477 1.083,0.796 1.553,1.206 0,0.187 -0.161,0.24 -0.274,0.345 -0.285,-0.105 -0.571,-0.225 -0.808,-0.464 -0.347,-0.252 -0.669,-0.398 -0.967,-0.716 -0.136,-0.133 -0.261,-0.398 -0.446,-0.477 -0.673,-0.756 -1.355,-1.473 -1.79,-2.401 -0.161,-0.277 -0.384,-0.476 -0.508,-0.769 -0.087,-0.106 -0.137,-0.278 -0.274,-0.251 -0.185,0.238 -0.448,0.463 -0.645,0.688 -0.026,0.094 -0.135,0.227 -0.026,0.332 0.348,0.265 0.758,0.453 1.069,0.783 0.622,0.437 1.118,0.982 1.715,1.405 l 0.382,0.491 c 0.187,0.438 0.596,0.769 0.672,1.246 -0.087,0.054 -0.137,0.173 -0.261,0.173 -0.695,-1.008 -1.59,-1.922 -2.559,-2.705 -0.299,-0.093 -0.521,-0.424 -0.83,-0.504 -0.188,-0.304 -0.473,-0.358 -0.695,-0.584 -0.511,-0.185 -0.883,-0.582 -1.404,-0.715 -0.56,-0.32 -1.157,-0.624 -1.638,-1.061 -0.586,-0.279 -1.12,-0.756 -1.628,-1.194 -0.536,-0.397 -1.043,-0.888 -1.49,-1.432 -0.076,-0.014 -0.112,0.027 -0.162,0.079 -0.062,0.105 -0.087,0.265 -0.074,0.385 0.321,0.583 0.943,0.915 1.415,1.312 0.51,0.518 1.142,0.822 1.652,1.287 1.304,0.875 2.755,1.487 4.024,2.427 h 0.086 c 0.671,0.49 1.503,1.008 1.913,1.803 0.41,0.174 0.621,0.624 0.943,0.982 l 0.036,0.173 c 0.027,0.198 -0.198,0.198 -0.258,0.317 -0.969,-0.768 -1.616,-1.989 -2.685,-2.638 -0.658,-0.478 -1.377,-0.77 -2.072,-1.155 -1.105,-0.755 -2.26,-1.391 -3.354,-2.147 -0.05,-0.227 -0.285,-0.253 -0.385,-0.411 -0.533,-0.36 -0.994,-0.81 -1.465,-1.246 -0.05,0.011 -0.123,-0.028 -0.149,0.051 -0.038,0.039 -0.049,0.172 -0.038,0.172 0.324,0.479 0.709,0.85 1.068,1.288 0.746,0.688 1.615,1.086 2.399,1.671 1.29,1.047 2.941,1.392 4.196,2.492 0.608,0.611 1.229,1.195 1.849,1.818 l 0.075,0.172 c -0.037,0.198 -0.247,0.279 -0.397,0.37 -0.447,-0.715 -1.092,-1.126 -1.676,-1.657 -0.72,-0.464 -1.341,-1.166 -2.185,-1.418 -0.323,-0.265 -0.769,-0.346 -1.117,-0.597 -1.181,-0.558 -2.11,-1.459 -3.243,-2.136 -0.247,-0.317 -0.583,-0.544 -0.782,-0.887 -0.21,-0.16 -0.309,-0.651 -0.631,-0.532 -0.065,0.107 -0.101,0.252 -0.039,0.372 0.646,0.995 1.676,1.697 2.595,2.293 0.447,0.493 1.019,0.743 1.579,0.995 0.521,0.161 0.943,0.572 1.425,0.81 0.833,0.397 1.641,1.008 2.386,1.577 0.409,0.451 1.057,0.651 1.191,1.327 l -0.285,0.24 c -0.223,0.078 -0.31,-0.24 -0.485,-0.345 -0.335,-0.492 -0.869,-0.757 -1.341,-1.155 -0.124,-0.133 -0.298,-0.291 -0.484,-0.331 -0.273,0.609 -0.075,1.326 -0.311,1.936 -0.173,0 -0.471,0.106 -0.52,-0.16 -0.039,-0.741 0.16,-1.339 0.272,-1.989 0.025,-0.159 -0.162,-0.159 -0.223,-0.291 -0.075,-0.04 -0.161,0.026 -0.187,0.105 -0.198,0.691 -0.11,1.512 -0.123,2.23 l -0.075,0.105 c -0.15,0.026 -0.371,0.053 -0.471,-0.16 0,-0.65 0,-1.273 0.125,-1.909 -0.04,-0.225 0.123,-0.465 0.123,-0.703 -0.061,-0.119 -0.174,-0.225 -0.336,-0.199 -0.086,0.28 -0.185,0.636 -0.211,0.929 0.026,0.424 -0.038,0.835 -0.051,1.246 -0.072,0.265 0.299,0.809 -0.147,0.889 -0.112,-0.067 -0.272,0.039 -0.323,-0.159 -0.1,-0.544 -0.049,-1.155 0.023,-1.711 -0.01,-0.504 0.1,-0.981 0.198,-1.459 -0.02,-0.093 -0.122,-0.24 -0.247,-0.173 -0.198,0.225 -0.023,0.545 -0.222,0.769 -0.137,0.835 0,1.659 -0.074,2.494 0.01,0.252 -0.174,0.066 -0.299,0.092 -0.087,-0.04 -0.199,-0.145 -0.199,-0.265 0,-0.795 -0.049,-1.511 0.049,-2.306 -0.098,-0.438 0.449,-0.969 -0.086,-1.222 -0.497,-0.184 -0.869,-0.569 -1.328,-0.847 l -0.175,-0.054 c -0.535,-0.623 -1.242,-1.021 -1.752,-1.685 -0.121,-0.131 -0.308,-0.264 -0.458,-0.358 -0.112,0.027 -0.161,0.174 -0.112,0.279 0.123,0.251 0.324,0.424 0.522,0.544 l 0.832,1.074 c 0.383,0.583 0.683,1.234 0.931,1.897 0.435,0.756 0.609,1.618 0.832,2.453 0.037,0.53 0.161,1.074 0.111,1.605 l -0.149,0.185 c -0.172,0.093 -0.322,-0.039 -0.431,-0.185 0.009,-0.492 0,-0.968 -0.103,-1.406 -0.223,-0.716 -0.384,-1.46 -0.669,-2.135 -0.36,-0.69 -0.51,-1.499 -1.045,-2.069 -0.184,-0.477 -0.62,-0.728 -0.941,-1.114 -0.797,-1.181 -1.802,-2.135 -2.523,-3.368 -0.085,-0.158 -0.048,-0.319 -0.198,-0.438 -0.286,-0.557 -0.472,-1.18 -0.659,-1.776 -0.274,-0.505 -0.334,-1.154 -0.359,-1.725 -0.149,-1.007 -0.249,-2.003 -0.299,-3.037 -0.036,-0.106 -0.086,-0.212 -0.16,-0.252 -0.123,0 -0.2,0.146 -0.223,0.252 0.148,0.928 0.111,1.897 0.322,2.812 0.075,0.796 0.199,1.604 0.408,2.36 0.028,0.079 0.051,0.173 0.115,0.226 0.322,0.61 0.421,1.312 0.806,1.895 0.173,0.664 0.782,1.049 1.143,1.618 0.595,0.651 1.316,1.354 1.849,2.096 0.41,0.597 0.818,1.207 1.205,1.83 0.347,0.876 0.72,1.791 0.844,2.72 0.088,0.529 0.175,1.113 0.161,1.696 l -0.062,0.133 c -0.15,-0.026 -0.298,0.065 -0.436,-0.014 -0.124,-1.153 -0.209,-2.374 -0.682,-3.448 -0.025,-0.277 -0.284,-0.503 -0.297,-0.796 -0.534,-0.622 -0.97,-1.312 -1.39,-2.015 -0.386,-0.372 -0.61,-1.007 -1.143,-1.179 -0.285,-0.452 -0.759,-0.823 -0.983,-1.314 -0.558,-0.398 -0.707,-1.18 -1.13,-1.697 -0.086,-0.359 -0.308,-0.664 -0.347,-1.034 -0.36,-0.928 -0.508,-2.002 -0.619,-3.012 -0.187,-0.927 -0.2,-1.736 -0.288,-2.651 -0.048,-0.119 -0.199,-0.067 -0.235,0.026 -0.05,0.305 -0.05,0.69 0.013,1.022 0.137,0.941 0.162,1.896 0.371,2.837 -0.024,1.367 0.598,2.507 1.069,3.674 0.595,0.796 1.119,1.777 1.864,2.413 0.408,0.372 0.93,0.623 1.166,1.14 l 1.043,1.473 c 0.446,0.662 0.746,1.472 1.032,2.254 0.023,0.756 0.284,1.5 0.235,2.281 -0.05,0.185 -0.247,0.04 -0.347,0.12 L 98.3,62.597 98.236,62.504 C 98.188,61.867 98.089,61.231 98.002,60.595 L 97.766,59.732 97.615,59.508 C 97.429,59.096 97.258,58.685 97.07,58.274 96.896,57.995 96.673,57.744 96.536,57.438 L 96.177,57.08 95.989,56.775 95.679,56.457 95.493,56.404 95.332,56.126 95.257,56.111 94.425,55.343 C 94.24,55.037 93.991,54.786 93.781,54.495 l -0.187,-0.16 C 93.519,54.189 93.42,54.069 93.32,53.964 93.122,53.513 92.824,53.115 92.625,52.663 92.377,51.962 92.129,51.245 91.93,50.516 91.867,50.131 91.806,49.746 91.779,49.362 l -0.073,-0.066 c 0.013,-0.305 -0.087,-0.61 -0.124,-0.901 v -0.306 c -0.113,-0.291 -0.124,-0.61 -0.15,-0.914 h 0.026 c -0.062,-0.492 -0.075,-1.009 -0.124,-1.527 l -0.052,-0.039 -0.197,0.172 c -0.012,0.094 0.051,0.187 0.074,0.279 l -0.023,0.464 0.073,0.437 c -0.05,0.174 0.037,0.359 -0.024,0.531 0.113,0.597 0.061,1.207 0.198,1.791 l -0.025,0.107 c -0.013,0.53 0.261,0.993 0.324,1.497 0.211,0.584 0.336,1.207 0.522,1.818 l 0.173,0.423 c 0.271,0.438 0.497,0.89 0.745,1.34 0.285,0.37 0.596,0.729 0.943,1.047 l 0.747,0.65 0.397,0.464 0.917,0.876 0.496,0.663 0.524,1.101 0.098,0.357 0.112,0.212 c 0.099,0.372 0.15,0.757 0.311,1.1 l 0.187,0.917 0.011,0.556 -0.088,0.119 -0.285,0.04 -0.173,-0.106 -0.038,-0.331 c -0.099,-0.676 -0.285,-1.339 -0.433,-2.016 -0.2,-0.478 -0.336,-0.994 -0.547,-1.471 l -0.199,-0.212 c -0.038,0.109 -0.053,0.148 -0.06,0.155 0.071,0.356 0.062,1.532 0.098,0.68 -0.014,0.689 0.037,1.379 -0.014,2.068 -0.037,0.305 -0.137,0.585 -0.209,0.875 l -0.114,0.066 c -0.112,0.014 -0.223,0.028 -0.333,0.028 l -0.089,-0.094 0.199,-1.074 0.05,-1.392 c -0.05,-0.266 -0.05,-0.531 -0.063,-0.808 -0.06,-0.453 -0.111,-0.917 -0.186,-1.367 l -0.124,-0.199 -0.125,-0.015 -0.072,0.094 c 0.111,0.425 0.134,0.85 0.197,1.261 0.062,0.45 0.062,0.901 0.087,1.339 -0.012,0.504 -0.05,0.994 -0.099,1.498 l -0.149,0.438 -0.124,0.186 -0.211,-0.079 -0.074,-0.148 c 0.037,-0.264 0.11,-0.516 0.11,-0.781 l 0.087,-0.293 -0.012,-0.489 0.039,-0.041 C 94.86,59.971 94.922,59.6 94.884,59.229 94.774,58.672 94.797,58.114 94.687,57.557 l -0.099,-0.211 -0.175,0.105 -0.026,0.371 c 0.162,0.346 0.139,0.742 0.262,1.102 l 0.075,0.914 c -0.088,0.611 -0.151,1.207 -0.26,1.804 l -0.162,0.253 -0.15,-0.028 -0.111,-0.093 -0.062,-0.225 0.148,-0.677 c 0.062,-0.397 0.089,-0.821 0.113,-1.233 -0.039,-0.491 -0.113,-0.981 -0.175,-1.471 l -0.063,-0.159 -0.086,-0.054 -0.285,0.265 -0.027,0.239 0.1,0.187 c 0.038,0.37 0.087,0.729 0.139,1.086 -0.101,0.345 -0.052,0.651 -0.052,0.983 l -0.049,0.079 -0.024,0.211 -0.124,0.332 -0.187,0.198 -0.323,-0.158 -0.074,-0.133 c 0.086,-0.145 0.074,-0.332 0.112,-0.505 l 0.024,-0.583 0.088,-0.53 -0.075,-0.199 -0.013,-0.477 -0.074,-0.04 -0.148,0.094 c -0.311,0.397 -0.559,0.808 -0.808,1.219 -0.05,0.305 -0.223,0.558 -0.337,0.837 l -0.16,0.198 -0.187,0.013 -0.211,-0.133 -0.074,-0.133 c 0.012,-0.133 0.051,-0.251 0.088,-0.384 0.11,-0.12 0.123,-0.305 0.197,-0.465 0.41,-0.623 0.882,-1.193 1.293,-1.83 0.285,-0.305 0.595,-0.609 0.893,-0.914 l 0.1,-0.013 0.658,-0.69 v -0.066 c -0.026,-0.067 -0.1,-0.093 -0.15,-0.147 -0.149,0.147 -0.321,0.266 -0.472,0.386 l -0.211,0.079 -0.148,0.225 -0.236,0.16 -0.782,0.874 -0.049,0.226 c -0.286,0.251 -0.41,0.636 -0.673,0.902 l -0.396,0.65 -0.013,0.146 c -0.11,0.053 -0.136,0.198 -0.211,0.292 -0.037,0.237 -0.147,0.451 -0.223,0.663 l -0.087,0.052 -0.312,-0.199 -0.073,-0.119 0.161,-0.558 1.081,-1.882 c 0.359,-0.517 0.818,-0.955 1.231,-1.432 0.333,-0.292 0.658,-0.61 0.978,-0.916 l -0.087,-0.157 -0.146,-0.015 -0.324,0.253 -0.212,0.331 c -0.223,0.147 -0.384,0.358 -0.584,0.544 l 0.05,0.053 -0.05,-0.04 c -0.334,0.371 -0.659,0.716 -1.031,1.034 -0.372,0.544 -0.707,1.128 -1.006,1.711 l -0.011,0.133 -0.061,0.027 c -0.1,0.265 -0.25,0.517 -0.337,0.781 l -0.099,0.067 -0.348,-0.212 -0.037,-0.239 0.062,-0.199 0.113,-0.093 c 0.296,-0.583 0.595,-1.167 0.894,-1.738 l 0.371,-0.489 c 0.273,-0.331 0.583,-0.624 0.894,-0.915 l 0.535,-0.664 0.67,-0.703 0.025,-0.159 -0.136,-0.08 c -0.732,0.745 -1.514,1.419 -2.211,2.203 l -0.56,0.795 -0.283,0.664 -0.276,0.422 c -0.061,0.279 -0.222,0.518 -0.32,0.771 L 89.161,60.21 88.9,59.971 88.876,59.799 c 0.223,-0.518 0.471,-1.035 0.658,-1.579 0.16,-0.239 0.311,-0.476 0.458,-0.715 l 0.223,-0.253 0.063,-0.146 c 0.384,-0.397 0.782,-0.795 1.129,-1.218 l 1.144,-1.023 0.012,-0.172 -0.273,-0.451 -0.038,-0.173 -0.262,-0.423 -0.16,-0.424 -0.175,-0.279 -0.209,-0.558 c -0.124,-0.582 -0.261,-1.166 -0.411,-1.737 -0.048,-0.305 -0.111,-0.595 -0.124,-0.902 l -0.172,-0.184 -0.461,0.211 -0.075,0.133 -0.447,0.28 -0.136,0.039 -0.535,0.344 -0.162,0.398 c -0.086,0.371 -0.197,0.729 -0.247,1.1 0.012,0.266 -0.037,0.544 -0.063,0.81 -0.011,1.166 0.015,2.348 -0.036,3.514 l -0.037,0.08 -0.061,0.822 c -0.063,0.477 -0.115,0.954 -0.213,1.419 l 0.037,0.039 -0.172,0.77 -0.176,0.357 -0.248,0.014 -0.136,-0.093 -0.05,-0.225 0.149,-0.386 c 0.075,-0.25 0.049,-0.516 0.149,-0.754 0.05,-0.505 0.175,-1.022 0.15,-1.539 l 0.061,-0.107 c 0.013,-0.504 0.064,-1.008 0.101,-1.512 -0.088,-0.396 -0.063,-0.808 -0.088,-1.219 0.036,-0.465 0.051,-0.942 0.074,-1.407 l -0.061,-0.039 0.049,-0.039 c 0.026,-0.054 0,-0.121 0,-0.187 0.112,-0.423 0.15,-0.874 0.286,-1.313 l -0.075,-0.105 h -0.137 l -0.136,0.133 -0.16,0.636 c 0,0.24 -0.027,0.491 0,0.743 l -0.064,0.027 c -0.036,0.556 0.05,1.113 -0.036,1.657 l 0.024,0.597 c -0.123,0.835 -0.123,1.697 -0.137,2.533 -0.086,0.158 -0.086,0.344 -0.136,0.518 -0.013,0.251 -0.05,0.502 -0.087,0.741 l -0.211,0.941 -0.099,0.107 -0.225,0.039 -0.172,-0.198 c 0.073,-0.318 0.123,-0.65 0.235,-0.982 l 0.013,-0.397 0.149,-0.956 c -0.062,-0.265 0,-0.543 -0.026,-0.822 l 0.076,-0.224 -0.038,-0.187 0.05,-0.118 -0.05,-0.227 c 0.112,-0.476 0.087,-0.98 0.112,-1.471 l -0.05,-0.093 0.075,-0.557 c -0.014,-0.213 0.05,-0.425 0,-0.624 l 0.073,-0.332 c -0.011,-0.344 0.038,-0.688 0.088,-1.019 L 87.41,51.299 87.261,51.271 c -0.088,0.094 -0.088,0.24 -0.124,0.36 l -0.026,0.503 -0.05,0.053 c -0.011,0.822 -0.049,1.644 -0.024,2.466 -0.148,1.458 -0.272,2.878 -0.421,4.337 l -0.15,0.239 -0.248,0.026 -0.136,-0.093 c 0.012,-0.411 0.085,-0.836 0.099,-1.246 l 0.073,-0.186 -0.012,-0.358 0.05,-0.054 c 0.024,-0.822 0.162,-1.643 0.162,-2.465 l 0.063,-0.133 c -0.014,-0.399 0.073,-0.796 0.047,-1.195 l 0.077,-0.198 c 0,-0.08 0,-0.146 -0.038,-0.199 0.062,-0.53 0.111,-1.113 0.086,-1.671 l -0.099,-0.066 -0.112,0.066 -0.085,0.213 v 0.357 c -0.114,0.292 -0.015,0.623 -0.139,0.916 l 0.038,0.649 -0.074,0.081 c -0.051,0.516 -0.074,1.033 -0.136,1.537 v 0.955 l -0.088,0.451 0.036,0.04 c 0,0.251 -0.036,0.504 -0.009,0.756 l -0.078,0.277 0.026,0.161 c -0.037,0.303 -0.073,0.609 -0.073,0.914 -0.051,0.345 -0.312,0.186 -0.473,0.252 L 85.3,58.938 c -0.015,-0.374 0.035,-0.757 0.049,-1.127 0.099,-0.518 0.099,-1.062 0.149,-1.593 l -0.05,-0.158 c -0.049,-0.172 -0.088,0.012 -0.148,0 -0.113,0.132 -0.226,0.278 -0.336,0.411 v 0.066 l -0.559,0.73 -0.459,0.847 -0.113,0.014 -0.249,-0.147 -0.073,-0.292 0.062,-0.025 -0.037,-0.053 0.694,-1.035 0.871,-1.074 0.397,-0.332 c 0.036,-0.133 0.024,-0.277 0.011,-0.41 L 85.36,54.732 c -0.272,0.214 -0.471,0.518 -0.745,0.717 -0.185,0.251 -0.385,0.49 -0.546,0.756 -0.062,0.226 -0.198,0.424 -0.285,0.636 l -0.2,0.239 c -0.085,0.226 -0.171,0.465 -0.297,0.676 l -0.099,0.014 -0.236,-0.252 -0.013,-0.239 c 0.174,-0.384 0.324,-0.796 0.536,-1.168 0.171,-0.264 0.358,-0.516 0.532,-0.768 l 0.597,-0.637 c 0.397,-0.252 0.646,-0.663 1.029,-0.954 l -0.035,-0.133 -0.05,-0.027 c -0.324,0.106 -0.46,0.278 -0.412,0.16 -0.383,0.305 -0.745,0.649 -1.104,1.008 l -0.248,0.344 -0.162,0.106 -0.038,0.106 c -0.011,0.027 -0.024,-0.025 -0.048,0 -0.323,0.464 -0.472,0.995 -0.733,1.486 l -0.125,0.531 -0.099,0.172 -0.198,-0.067 -0.162,-0.159 -0.012,-0.199 0.385,-1.181 0.534,-0.94 c 0.173,-0.227 0.349,-0.452 0.52,-0.677 l 0.611,-0.543 0.967,-0.597 c 0.099,-0.027 0.199,-0.067 0.298,-0.08 l 0.136,-0.119 -0.06,-0.066 c -0.348,0.079 -0.685,0.145 -1.006,0.304 -0.325,0.132 -0.597,0.385 -0.931,0.505 l -0.374,0.304 c -0.161,0.226 -0.299,0.478 -0.484,0.691 l -0.584,1.127 -0.297,0.914 -0.124,0.213 h -0.2 l -0.186,-0.16 -0.063,-0.159 0.15,-0.544 0.174,-0.225 0.198,-0.517 0.932,-1.632 c 0.213,-0.145 0.434,-0.344 0.657,-0.517 l 0.337,-0.211 0.719,-0.307 c 0.297,-0.079 0.597,-0.171 0.895,-0.264 l 0.335,-0.053 0.135,-0.172 c -0.011,-0.187 0.077,-0.386 0.062,-0.585 L 85.87,51.498 c -0.088,-0.027 -0.16,-0.041 -0.223,-0.107 -0.125,0.066 -0.248,0 -0.373,0 l -0.869,-0.252 c -0.359,-0.133 -0.707,-0.331 -1.081,-0.411 -0.124,0.278 -0.16,0.584 -0.236,0.876 -0.172,0.397 -0.285,0.835 -0.447,1.246 l -0.471,0.955 -0.124,0.451 -0.399,0.742 -0.085,0.039 c -0.162,0.279 -0.312,0.558 -0.472,0.836 -0.112,0.199 -0.2,-0.065 -0.337,0.04 -0.087,-0.053 -0.061,-0.172 -0.098,-0.266 0.235,-0.45 0.485,-0.887 0.72,-1.339 l 0.073,-0.29 c 0.039,-0.121 0.125,-0.213 0.199,-0.32 0.237,-0.504 0.473,-1.008 0.695,-1.538 0.076,-0.264 0.15,-0.529 0.225,-0.795 l 0.101,-0.213 v -0.185 l 0.061,-0.107 0.037,-0.397 -0.098,-0.211 -0.101,-0.015 -0.199,0.385 -0.011,0.172 -0.076,0.08 c -0.211,0.558 -0.373,1.167 -0.583,1.737 l -0.1,0.118 -0.099,0.32 -0.111,0.198 -0.149,0.518 c -0.125,0.026 -0.062,0.172 -0.162,0.225 l -0.037,0.186 -0.509,1.167 -0.161,0.252 h -0.099 l -0.274,-0.159 -0.037,-0.239 0.322,-0.596 c 0.137,-0.332 0.249,-0.677 0.421,-0.995 0.288,-0.783 0.561,-1.565 0.821,-2.347 l 0.163,-0.266 0.284,-0.835 0.039,-0.293 -0.064,-0.144 c -0.075,-0.014 -0.148,0.039 -0.223,0.066 -0.249,0.662 -0.484,1.326 -0.745,1.976 l -0.188,0.688 c -0.16,0.306 -0.285,0.638 -0.42,0.969 -0.114,0.292 -0.199,0.598 -0.286,0.901 l -0.05,0.053 c -0.074,0.266 -0.187,0.506 -0.322,0.744 l -0.125,0.04 c -0.149,-0.054 -0.236,-0.187 -0.349,-0.278 0.113,-0.373 0.226,-0.757 0.349,-1.128 l 0.11,-0.133 c 0.15,-0.425 0.348,-0.836 0.524,-1.246 l 0.184,-0.624 0.424,-1.113 0.111,-0.133 c 0.061,-0.332 0.161,-0.677 0.237,-1.022 l -0.05,-0.172 -0.112,-0.026 -0.125,0.066 c -0.359,1.021 -0.806,2.029 -1.178,3.05 l -0.05,0.013 c -0.249,0.61 -0.534,1.207 -0.721,1.844 l -0.199,0.225 c -0.137,-0.066 -0.248,-0.16 -0.372,-0.252 l -0.025,-0.145 0.497,-1.181 -0.038,-0.053 0.076,-0.079 c 0.248,-0.531 0.447,-1.061 0.668,-1.591 l -0.072,-0.16 c -0.459,0.239 -0.871,0.569 -1.304,0.848 l -0.075,0.133 c -0.187,0.066 -0.311,0.266 -0.497,0.306 -0.36,0.304 -0.696,0.636 -1.042,0.967 L 76.421,53.5 h -0.136 l -0.175,-0.239 -0.025,-0.172 0.261,-0.384 c 0.347,-0.266 0.658,-0.585 0.967,-0.89 0.336,-0.226 0.659,-0.464 0.984,-0.689 0.595,-0.345 1.179,-0.717 1.763,-1.062 l 0.124,-0.423 -0.062,-0.079 c -0.162,0.039 -0.299,0.118 -0.449,0.184 l -0.197,0.186 c -0.61,0.372 -1.216,0.743 -1.827,1.128 l -0.061,0.092 -0.459,0.346 -0.1,0.118 -0.125,0.067 -0.633,0.663 -0.087,0.039 -0.361,0.398 -0.148,0.094 -0.322,-0.305 v -0.106 l 0.298,-0.319 c 0.52,-0.503 1.079,-0.967 1.64,-1.432 l 0.744,-0.463 0.807,-0.585 0.931,-0.557 v -0.065 c -0.038,-0.133 -0.174,-0.107 -0.26,-0.133 l -0.435,0.212 -0.15,0.145 -0.074,-0.027 c -0.249,0.173 -0.52,0.359 -0.795,0.504 l -0.162,0.213 -0.248,0.105 -0.336,0.279 H 77.24 c -0.41,0.253 -0.77,0.571 -1.155,0.849 l -0.186,0.199 h -0.086 l -0.584,0.518 h -0.174 c -0.101,-0.027 -0.112,-0.146 -0.163,-0.213 l 0.025,-0.185 0.622,-0.597 0.174,-0.04 c 0.583,-0.531 1.241,-0.942 1.863,-1.433 l 0.16,-0.051 c 0.124,-0.121 0.286,-0.2 0.448,-0.28 l 0.222,-0.225 c -0.049,-0.067 -0.085,-0.119 -0.161,-0.133 l -1.016,0.517 v 0.04 l -0.375,0.225 c -0.309,0.253 -0.632,0.491 -0.916,0.77 l -0.263,0.105 -0.41,0.306 -0.411,0.385 -0.171,0.039 -0.149,-0.119 -0.051,-0.239 0.299,-0.344 c 0.172,-0.161 0.373,-0.279 0.582,-0.399 0.387,-0.371 0.846,-0.637 1.267,-0.954 l 0.024,-0.08 -0.037,-0.092 -0.447,-0.027 -0.072,0.066 c -0.225,-0.013 -0.424,0.159 -0.647,0.133 -0.099,0.106 -0.235,0.106 -0.359,0.145 l -0.125,0.133 -0.186,0.013 -0.213,-0.212 0.064,-0.251 0.608,-0.252 0.733,-0.226 c 0.372,-0.106 0.744,0.013 1.106,-0.119 l 0.149,-0.066 h 0.891 c 0.722,0.066 1.453,0.146 2.174,0.265 0.448,0.146 0.857,0.344 1.279,0.544 l 1.105,0.635 0.46,0.385 c 0.461,0.186 0.931,0.371 1.391,0.558 l 0.695,0.224 h 1.105 c 0.224,0 0.436,-0.119 0.659,-0.105 0.348,-0.107 0.731,-0.226 1.106,-0.318 l 0.222,-0.161 c 0.56,-0.105 -0.099,-0.039 0.46,-0.184 0.2,-0.213 0.448,-0.359 0.67,-0.544 0.285,-0.08 0.572,-0.252 0.844,-0.385 l 0.273,-0.053 0.162,-0.131 0.014,-0.253 -0.051,-0.054 c -0.236,0.146 -0.496,0.253 -0.709,0.438 l -0.359,0.119 c -0.112,0.239 -0.286,0.106 -0.423,0.252 -0.483,0.16 -0.905,0.464 -1.39,0.623 l -0.372,0.082 -0.064,0.066 c -0.396,0.118 -0.818,0.144 -1.227,0.185 -0.362,-0.028 -0.721,0 -1.07,-0.107 -0.261,-0.105 -0.509,-0.266 -0.78,-0.318 L 84.095,49.84 C 83.797,49.721 83.499,49.601 83.2,49.481 l -0.957,-0.584 c -0.62,-0.303 -1.265,-0.623 -1.898,-0.887 l -0.449,-0.093 -0.184,-0.106 c -0.149,0.053 -0.312,-0.106 -0.46,-0.04 -0.112,-0.106 -0.274,-0.132 -0.41,-0.172 -0.298,-0.04 -0.597,-0.054 -0.883,-0.067 -0.211,0.027 -0.421,0.04 -0.631,0.107 -0.212,-0.094 -0.411,0.039 -0.621,-0.028 l -0.089,0.094 c -0.197,0.052 -0.384,0.093 -0.583,0.106 l -0.248,0.119 c -0.285,0.04 -0.546,0.146 -0.819,0.186 -0.137,0.133 -0.299,0.199 -0.434,0.305 l -0.275,0.106 -0.112,-0.08 -0.136,-0.239 -0.012,-0.173 0.472,-0.264 0.098,-0.12 c 0.299,-0.092 0.596,-0.198 0.883,-0.318 0.533,-0.079 1.069,-0.198 1.614,-0.252 l 1.577,-0.013 0.137,0.067 c 0.198,0.012 0.397,0.025 0.596,0.066 l 0.746,0.211 h 0.16 c 0.16,0.08 0.338,0.133 0.508,0.187 l 0.175,0.132 c 0.498,0.265 0.994,0.518 1.49,0.769 l 0.758,0.464 0.571,0.199 c 0.334,0.186 0.695,0.332 1.042,0.504 0.275,0.093 0.559,0.133 0.845,0.187 0.323,0.011 0.608,-0.108 0.919,-0.054 0.658,-0.133 1.305,-0.371 1.962,-0.571 0.682,-0.358 1.38,-0.69 2.061,-1.074 l 0.075,-0.133 C 90.626,47.996 90.662,47.956 90.65,47.917 L 90.538,47.89 c -0.297,0.186 -0.633,0.278 -0.943,0.398 -0.547,0.331 -1.179,0.478 -1.7,0.848 l -0.708,0.226 c -0.498,0.079 -0.981,0.172 -1.477,0.186 -0.249,-0.067 -0.497,-0.119 -0.746,-0.173 -0.459,-0.173 -0.882,-0.49 -1.342,-0.623 -0.597,-0.437 -1.254,-0.769 -1.851,-1.22 h -0.148 c -0.31,-0.239 -0.708,-0.385 -1.055,-0.571 l -0.446,-0.132 c -0.425,-0.106 -0.846,-0.158 -1.268,-0.225 -0.348,-0.013 -0.682,0 -1.018,-0.027 l -0.061,-0.066 -0.199,-0.013 c -0.572,0.066 -1.143,0.146 -1.69,0.317 l -0.223,0.014 c -0.223,0.119 -0.471,0.174 -0.72,0.226 l -0.547,0.238 c -0.148,0.106 -0.287,0.239 -0.458,0.279 l -0.287,-0.213 v -0.145 c 0.162,-0.159 0.372,-0.211 0.547,-0.332 l 0.719,-0.266 c 0.115,-0.105 0.26,-0.158 0.398,-0.238 l 0.198,-0.013 0.324,-0.119 c 0.323,-0.039 0.633,-0.146 0.956,-0.12 0.037,-0.052 0.111,-0.052 0.161,-0.079 0.398,0 0.794,0.039 1.182,-0.014 0.582,0.093 1.178,0.186 1.775,0.266 l 0.693,0.199 c 0.683,0.357 1.391,0.703 2.074,1.074 0.15,0.199 0.386,0.251 0.559,0.45 0.51,0.319 1.08,0.558 1.616,0.824 l 0.893,0.223 c 0.41,-0.024 0.833,-0.09 1.242,-0.157 0.284,-0.08 0.559,-0.213 0.844,-0.279 l 0.856,-0.504 c 0.25,0 0.473,-0.159 0.708,-0.265 l 0.21,-0.186 c 0.348,-0.106 0.672,-0.291 1.02,-0.438 0.036,-0.065 -0.025,-0.119 -0.037,-0.185 -0.16,-0.028 -0.336,0.039 -0.496,0.066 -0.262,0.186 -0.572,0.238 -0.859,0.358 -0.272,0.186 -0.546,0.359 -0.818,0.543 l -0.223,0.054 c -0.088,0.092 -0.224,0.026 -0.298,0.158 -0.348,0.147 -0.708,0.266 -1.068,0.399 -0.31,0.213 -0.683,0.133 -0.969,0.039 l -0.125,0.054 c -0.249,-0.066 -0.52,-0.187 -0.781,-0.279 -0.236,-0.08 -0.46,-0.213 -0.671,-0.318 l -0.434,-0.291 -0.163,-0.213 -0.1,-0.014 -0.099,-0.145 c -0.397,-0.212 -0.77,-0.478 -1.143,-0.717 l -0.347,-0.133 c -0.185,-0.144 -0.41,-0.251 -0.607,-0.37 l -0.883,-0.345 c -0.522,-0.147 -1.067,-0.092 -1.588,-0.199 l -0.124,0.027 -0.522,-0.107 c -1.155,0.12 0,-0.04 -1.142,0 -0.795,0.198 -1.59,0.265 -2.372,0.464 -0.137,0.133 -0.361,0.094 -0.486,0.253 l -0.248,0.039 c -0.199,0.199 -0.471,0.266 -0.658,0.465 l -0.097,0.012 C 73.18,46.749 73.029,46.683 72.993,46.524 l 0.05,-0.092 0.435,-0.346 c 0.397,-0.158 0.808,-0.266 1.191,-0.464 l 0.099,-0.119 c 0.175,-0.053 0.347,-0.093 0.523,-0.172 0.321,-0.04 0.647,-0.04 0.968,-0.119 l 0.286,-0.12 c 0.348,0 0.705,-0.027 1.055,-0.079 0.52,0.039 1.055,0.092 1.577,0.133 l 0.124,0.066 h 0.61 l 0.755,0.172 c 0.15,0.093 0.286,0.238 0.461,0.264 l 0.112,-0.092 c 0.124,-0.305 0.199,-0.637 0.297,-0.954 l 0.235,-0.531 0.288,-1.06 -0.076,-0.094 c -0.484,-0.146 -0.93,-0.397 -1.39,-0.597 -0.498,-0.119 -1.02,-0.159 -1.527,-0.199 l -0.56,0.014 -0.075,0.053 c -0.285,-0.027 -0.571,0.093 -0.843,0.093 -0.297,0.157 -0.608,0.305 -0.906,0.478 -0.448,0.158 -0.845,0.41 -1.292,0.569 l -0.049,0.094 c -0.186,0.133 -0.348,0.277 -0.559,0.356 -0.236,0.2 -0.523,0.36 -0.771,0.532 l -0.012,0.065 c -0.26,0.054 -0.423,0.28 -0.671,0.359 -0.223,0.212 -0.521,0.371 -0.78,0.557 l -0.089,-0.04 -0.137,-0.186 0.039,-0.198 c 0.396,-0.345 0.868,-0.61 1.304,-0.915 l 0.086,-0.014 c 0.472,-0.332 0.932,-0.663 1.391,-0.994 0.632,-0.332 1.316,-0.596 1.938,-0.956 l 0.532,-0.198 c 0.41,-0.105 0.832,-0.119 1.254,-0.199 l 0.907,0.053 0.669,0.106 c 0.598,0.199 1.156,0.478 1.728,0.73 l 0.137,-0.093 0.111,-0.252 -0.037,-0.093 C 82.059,41.843 81.71,41.724 81.375,41.564 l -0.473,-0.318 c -0.098,0.013 -0.185,-0.066 -0.272,-0.12 l -1.378,-0.212 -0.149,0.08 -0.534,-0.04 c -0.449,0.081 -0.882,0.226 -1.329,0.319 l -0.15,0.159 c -0.186,0.066 -0.372,0.145 -0.545,0.212 l -0.274,0.199 c -0.2,0.04 -0.372,0.199 -0.558,0.278 l -0.038,-0.039 c -0.322,0.266 -0.695,0.423 -1.006,0.702 h -0.073 c -0.274,0.239 -0.597,0.399 -0.883,0.611 l -0.048,0.093 c -0.2,0.133 -0.373,0.29 -0.56,0.45 l -0.335,0.159 -0.038,0.093 c -0.149,0.067 -0.236,0.185 -0.348,0.279 l -0.101,0.026 -0.133,0.133 -0.162,0.027 -0.113,-0.133 -0.012,-0.172 0.074,-0.146 c 0.584,-0.426 1.083,-0.955 1.689,-1.353 l 0.113,-0.026 c 0.496,-0.345 0.993,-0.704 1.502,-1.021 0.272,-0.16 0.572,-0.266 0.858,-0.399 l 0.097,-0.159 0.658,-0.305 c 0.459,-0.225 0.971,-0.292 1.467,-0.477 0.062,-0.026 0.024,0.014 0.036,0.026 l 0.348,-0.079 0.361,0.053 0.323,-0.053 0.136,0.067 0.41,0.012 0.669,0.133 0.621,0.186 c 0.323,0.093 0.573,0.359 0.895,0.45 l 0.322,0.239 h 0.249 L 82.838,41.102 82.74,40.994 C 82.17,40.729 81.562,40.53 80.978,40.306 l -0.374,-0.094 -0.57,-0.039 -0.074,-0.04 c -0.324,-0.054 -0.646,-0.067 -0.971,-0.093 -0.172,0.093 -0.371,0.039 -0.545,0.133 -0.161,-0.04 -0.335,0.026 -0.495,0.039 -0.25,0.145 -0.558,0.105 -0.808,0.252 H 76.93 l -0.026,0.066 c -0.124,0.04 -0.249,0.093 -0.372,0.119 l -0.136,0.121 -0.225,0.066 -0.233,0.185 c -0.177,0.026 -0.311,0.132 -0.473,0.213 l -0.263,0.278 c -0.222,0.052 -0.408,0.198 -0.606,0.292 l -0.248,0.225 c -0.373,0.212 -0.733,0.476 -1.119,0.689 l -0.249,0.08 c -0.298,0.159 -0.582,0.371 -0.893,0.53 l -0.299,0.293 h -0.085 l -0.274,0.185 -0.149,0.013 -0.113,-0.08 -0.062,-0.184 0.04,-0.254 0.395,-0.265 0.248,-0.092 0.224,-0.16 c 0.162,-0.08 0.322,-0.146 0.497,-0.224 l 0.596,-0.412 0.2,-0.066 0.36,-0.278 0.086,0.012 c 0.187,-0.131 0.385,-0.239 0.571,-0.371 l 0.135,-0.172 1.008,-0.584 c 0.385,-0.172 0.769,-0.372 1.142,-0.571 0.784,-0.317 -0.174,0.04 0.633,-0.264 l 0.073,0.041 c 0.423,-0.161 0.859,-0.2 1.281,-0.293 0.434,0 0.87,-0.014 1.302,-0.026 0.335,0.092 0.683,0.078 1.033,0.158 l 0.644,0.185 c 0.486,0.254 0.994,0.398 1.479,0.638 0.074,-0.027 0.097,-0.093 0.124,-0.16 l -0.05,-0.146 c -0.386,-0.224 -0.808,-0.41 -1.218,-0.597 -0.46,-0.091 -0.917,-0.252 -1.377,-0.331 -0.126,-0.026 -0.249,-0.106 -0.385,-0.145 l -0.173,0.039 -0.126,-0.039 -0.595,0.026 -0.224,-0.039 c -0.484,0.106 -0.955,0.265 -1.44,0.345 l -0.037,0.078 -0.113,-0.025 c -0.358,0.091 -0.669,0.304 -1.03,0.371 l -0.149,0.118 -0.049,-0.039 -0.125,0.066 -0.05,-0.027 -0.124,0.106 c -0.137,0 -0.248,0.067 -0.384,0.093 -0.298,0.199 -0.635,0.279 -0.907,0.505 l -0.051,-0.027 c -0.211,0.093 -0.397,0.265 -0.594,0.384 l -0.335,0.133 -0.212,0.239 h -0.074 c -0.436,0.291 -0.858,0.544 -1.28,0.835 -0.101,0.079 -0.174,0.173 -0.235,0.279 -0.1,0.105 -0.064,-0.013 -0.1,-0.013 -0.273,0.198 -0.548,0.411 -0.845,0.57 -0.112,-0.04 -0.073,-0.145 -0.148,-0.199 v -0.186 l 0.296,-0.344 c 0.163,-0.107 0.324,-0.239 0.474,-0.359 l 0.248,-0.105 c 0.272,-0.199 0.584,-0.359 0.832,-0.61 0.93,-0.583 1.887,-1.141 2.856,-1.658 0.309,-0.093 0.61,-0.252 0.944,-0.293 l 0.458,-0.278 0.437,-0.106 0.16,-0.119 c 0.149,0.013 0.285,0.027 0.436,-0.012 l 0.297,-0.12 0.024,-0.107 -0.285,-0.768 -0.323,-0.465 -0.2,-0.146 c -0.171,0.067 -0.383,0.079 -0.546,0.185 -0.172,0.014 -0.333,0.055 -0.496,0.081 -0.211,0.145 -0.484,0.118 -0.707,0.239 l -0.584,0.781 -0.571,0.889 c -0.21,0.239 -0.448,0.451 -0.633,0.702 l -0.162,0.054 c -0.273,0.252 -0.547,0.477 -0.82,0.716 -0.185,0.052 -0.348,0.174 -0.52,0.252 l -0.325,-0.266 v -0.078 l 0.138,-0.16 0.335,-0.186 c 0.433,-0.372 0.856,-0.769 1.292,-1.153 l 0.645,-0.77 0.274,-0.424 0.037,-0.133 -0.051,-0.079 H 74.62 c -0.149,0.212 -0.361,0.397 -0.511,0.624 l -0.383,0.291 c -0.223,0.186 -0.385,0.451 -0.572,0.675 l -0.77,0.678 c -0.396,0.052 -0.521,0.649 -0.905,0.318 l -0.05,-0.186 0.124,-0.132 0.222,-0.081 c 0.348,-0.277 0.709,-0.569 1.057,-0.847 l 1.056,-1.115 c 0.024,-0.052 0.011,-0.119 0,-0.172 -0.064,-0.026 -0.124,-0.041 -0.187,-0.013 -0.36,0.345 -0.721,0.702 -1.081,1.047 l -0.186,0.12 -0.036,0.119 -0.435,0.464 -0.224,0.08 -0.199,0.184 -0.111,0.028 -0.113,0.133 -0.211,0.053 -0.16,-0.066 -0.039,-0.238 c 0.114,-0.161 0.311,-0.213 0.436,-0.385 h 0.062 c 0.371,-0.32 0.709,-0.69 1.105,-0.983 l 0.012,-0.105 0.075,0.026 0.161,-0.212 0.024,-0.185 -0.172,-0.054 c -0.15,0.054 -0.2,0.212 -0.298,0.319 -0.323,0.211 -0.597,0.49 -0.895,0.729 l -0.435,0.543 c -0.137,0.08 -0.273,0.146 -0.434,0.174 L 70.36,39.615 v -0.133 c 0.202,-0.317 0.497,-0.531 0.745,-0.794 l 0.683,-0.532 c 0.038,-0.052 0.025,-0.119 0,-0.172 l -0.643,-0.12 -0.088,0.04 c -0.275,-0.093 -0.574,-0.093 -0.858,-0.16 l -0.444,-0.212 -0.052,-0.092 0.174,-0.383 h 0.186 c 0.086,0.091 0.199,0.119 0.297,0.172 0.461,0.079 0.92,0.159 1.379,0.185 l 0.049,0.04 c 0.286,0.026 0.573,0.012 0.869,0.012 l 0.186,0.066 0.125,-0.066 c 0.175,0.027 0.348,-0.026 0.522,-0.039 0.261,0.08 0.533,0.027 0.806,0.027 l 0.472,-0.12 0.049,0.026 c 0.215,-0.026 0.412,-0.079 0.623,-0.145 l 0.062,0.04 0.11,-0.107 c 0.311,-0.091 0.634,-0.146 0.946,-0.264 l 0.235,-0.015 0.236,-0.144 0.024,-0.107 -0.049,-0.066 c -0.174,-0.067 -0.359,0 -0.534,0 -0.36,0.106 -0.746,0.094 -1.094,0.239 -0.494,0.105 -0.98,0.238 -1.488,0.266 l -0.362,0.144 c -0.309,-0.025 -0.631,0.014 -0.943,0 l -0.222,-0.133 -0.398,0.028 -0.088,-0.067 -0.087,0.039 -0.085,-0.039 -0.075,0.028 -0.162,-0.067 C 71.02,36.924 70.583,36.817 70.136,36.803 L 69.987,36.67 c 0,-0.078 -0.011,-0.157 -0.011,-0.251 l 0.149,-0.172 c 0.509,0.133 1.042,0.185 1.539,0.317 l 0.857,0.015 0.336,0.067 0.136,-0.067 0.187,0.039 0.446,-0.054 c 0.1,0.054 0.212,-0.025 0.312,0.028 l 0.085,-0.053 h 0.164 l 0.198,-0.107 0.086,0.041 0.087,-0.067 0.447,-0.066 0.037,-0.04 c 0.398,-0.053 0.808,-0.133 1.217,-0.186 l 0.199,-0.08 0.012,-0.159 -0.162,-0.212 -0.62,0.133 c -0.223,0.173 -0.496,0.185 -0.745,0.291 l -0.112,-0.053 c -0.174,0.028 -0.36,0.053 -0.521,0.133 l -0.112,-0.026 c -0.161,0.053 -0.323,0.079 -0.485,0.106 l -0.421,-0.027 -0.225,0.093 c -0.31,0 -0.633,0.027 -0.954,0 -0.509,-0.04 -1.02,-0.132 -1.53,-0.212 l -0.285,-0.185 -0.048,-0.146 0.062,-0.252 0.062,-0.04 c 0.334,0.079 0.668,0.145 1.018,0.225 l 0.124,-0.014 0.248,0.081 c 0.396,-0.053 0.806,0 1.216,0 l 0.671,-0.081 0.173,0.028 c 0.337,-0.094 0.685,-0.094 1.021,-0.12 l 0.072,-0.067 0.447,-0.025 c 0.112,-0.094 0.237,-0.094 0.324,-0.214 -0.037,-0.157 -0.175,-0.237 -0.262,-0.37 L 74.845,35.2 74.694,35.159 c -0.361,0.093 -0.746,0.159 -1.118,0.226 l -0.05,-0.028 -0.631,0.094 C 72.609,35.399 72.299,35.357 72,35.318 l -0.261,-0.092 -0.075,0.052 c -0.237,0 -0.931,-0.323 -0.838,-0.211 l -0.08,-0.066 -0.088,-0.199 0.088,-0.198 0.124,-0.094 c 0.384,0.159 0.833,0.145 1.229,0.304 l 0.2,-0.026 0.062,0.039 1.055,0.054 0.235,-0.079 0.297,0.012 c 0.114,-0.079 0.261,-0.066 0.385,-0.092 l 0.201,-0.118 C 74.446,34.482 74.286,34.443 74.161,34.35 L 73.713,34.231 C 73.167,34.178 72.646,34.045 72.099,33.966 H 71.64 l -0.459,-0.093 c -0.062,-0.132 0.01,-0.278 0.01,-0.411 l 0.125,-0.08 0.635,0.08 0.285,-0.014 c 0.211,0.067 0.436,0.094 0.659,0.094 l 0.322,0.145 0.335,-0.04 0.869,0.213 c 0.471,0.251 0.969,0.438 1.453,0.689 l 0.46,0.411 1.143,1.34 0.023,0.08 c 0.423,0.317 0.275,0.411 0.559,0.677 0.077,0.172 0.125,0.343 0.262,0.464 0.1,0.383 0.322,0.729 0.483,1.1 l 0.224,0.026 0.061,-0.066 C 79.004,38.196 78.817,37.838 78.63,37.493 l -0.124,-0.425 c -0.235,-0.304 -0.386,-0.662 -0.609,-0.981 -0.285,-0.344 -0.584,-0.663 -0.906,-0.968 -0.236,-0.305 -0.484,-0.57 -0.732,-0.86 -0.124,-0.12 -0.274,-0.214 -0.422,-0.293 L 75.688,33.952 C 75.452,33.819 75.217,33.7 74.968,33.634 l -0.1,-0.092 -0.334,-0.054 -0.077,-0.079 C 74.322,33.448 74.209,33.355 74.087,33.315 73.49,33.224 72.906,33.17 72.311,33.116 71.963,33.091 71.628,33.091 71.28,33.077 l -0.113,-0.119 0.014,-0.345 0.148,-0.173 0.224,-0.025 c 0.125,0.065 0.273,0.039 0.41,0.065 l 0.061,-0.04 0.075,0.067 0.573,0.014 0.024,0.052 0.433,0.028 0.272,0.079 0.114,-0.027 c 0.15,0.053 0.323,0.039 0.484,0.067 0.349,0.159 0.721,0.265 1.094,0.371 l 0.496,0.239 0.224,0.052 c 0.258,0.199 0.57,0.332 0.818,0.545 l 0.869,0.887 0.199,0.292 0.36,0.318 c 0.262,0.398 0.535,0.796 0.783,1.222 0.273,0.648 0.558,1.297 0.845,1.935 l 0.099,0.079 0.274,-0.026 0.024,-0.079 -0.149,-0.624 -0.323,-0.702 -0.049,-0.2 -0.635,-1.326 -0.21,-0.225 C 78.506,35.226 78.37,34.907 78.184,34.643 l -0.707,-0.716 -0.149,-0.041 0.035,-0.079 c -0.346,-0.239 -0.708,-0.438 -1.055,-0.663 l -0.209,-0.028 -0.114,-0.105 -0.41,-0.132 -0.048,-0.108 c -0.495,-0.17 -1.008,-0.317 -1.516,-0.422 l -0.485,-0.054 c -0.125,-0.133 -0.272,0.079 -0.346,-0.12 -0.323,-0.013 -0.632,-0.067 -0.944,-0.091 h -0.548 l -0.444,-0.121 c -0.039,-0.106 -0.039,-0.211 -0.027,-0.332 l 0.112,-0.145 h 0.534 L 72,31.565 c 0.311,0 0.609,0.04 0.918,0.066 0.51,0.027 0.498,0.199 1.006,0.226 l 0.087,-0.039 c 0.609,0.119 1.166,0.318 1.74,0.517 l 0.756,0.331 c 0.473,0.279 0.893,0.598 1.365,0.889 0.286,0.331 0.585,0.662 0.87,1.008 l 0.062,0.146 0.213,0.212 0.072,0.198 c 0.199,0.214 0.3,0.544 0.51,0.756 0.037,0.199 0.187,0.372 0.285,0.544 l 0.273,0.638 c 0.162,0.556 0.337,1.099 0.524,1.643 l 0.198,0.079 0.086,-0.079 -0.063,-0.557 -0.036,-0.039 C 80.729,37.653 80.62,37.201 80.479,36.751 L 80.157,36.074 C 80.106,35.955 80.045,35.85 79.96,35.756 l -0.064,-0.199 -0.184,-0.212 -0.225,-0.464 c -0.235,-0.292 -0.434,-0.61 -0.645,-0.929 L 78.22,33.33 C 77.786,33.064 77.376,32.732 76.941,32.428 76.682,32.308 76.421,32.216 76.184,32.057 75.985,32.003 75.8,31.91 75.589,31.896 l -0.087,-0.078 -0.161,-0.014 -0.124,-0.092 c -0.41,-0.147 -0.832,-0.239 -1.254,-0.346 L 73.726,31.38 73.503,31.3 73.08,31.288 c -0.087,-0.055 -0.199,-0.066 -0.299,-0.08 -0.211,0.08 -0.447,-0.014 -0.668,-0.053 -0.238,0.053 -0.498,-0.013 -0.747,-0.013 -0.024,-0.133 0.013,-0.265 0.026,-0.398 l 0.099,-0.146 0.124,-0.027 c 0.559,0.027 1.131,0.027 1.69,0.107 l 0.073,0.092 h 0.273 l 0.137,0.08 0.46,0.012 c 0.497,0.133 0.993,0.305 1.489,0.451 l 0.757,0.318 c 0.472,0.265 0.919,0.558 1.403,0.809 0.46,0.439 0.945,0.836 1.417,1.247 L 79.4,33.595 h 0.262 c 0.198,-0.119 0.433,-0.107 0.647,-0.186 l 0.557,0.106 0.311,-0.027 c 0.211,0.067 0.434,0.08 0.657,0.08 l 0.187,0.119 c 0.198,0.027 0.397,0.054 0.595,0.08 0.597,0.172 1.192,0.305 1.775,0.504 l 0.71,0.278 0.397,0.213 0.321,0.079 0.399,0.226 0.77,0.318 0.049,-0.028 c 0.199,0.133 0.447,0.214 0.67,0.32 0.112,-0.027 0.199,0.04 0.31,0.079 0.635,0.185 1.306,0.213 1.962,0.318 0.174,-0.093 0.374,-0.04 0.573,-0.066 l 0.669,-0.305 0.522,-0.385 c 0.099,0.015 0.15,-0.066 0.237,-0.106 0.334,-0.464 0.718,-0.889 1.016,-1.405 l 0.387,-0.888 0.248,-0.943 -0.027,-0.039 0.063,-0.199 0.026,-0.795 0.124,-0.173 0.011,-2.294 0.063,-0.212 c -0.025,-1.22 0.05,-2.441 0.014,-3.648 l 0.074,-0.066 0.31,-0.026 0.124,0.106 c 0.099,0.105 -0.037,0.265 0.073,0.385 -0.173,0.027 -0.073,0.066 -0.073,0.093 l 0.036,0.08 -0.036,0.092 c 0.025,0.251 -0.049,0.491 0.036,0.729 -0.109,0.026 -0.036,0.053 -0.062,0.08 l 0.051,0.397 -0.051,0.16 c 0.062,0.12 0.014,0.265 0.026,0.384 l -0.063,0.08 0.037,0.039 -0.011,0.16 0.062,0.039 c -0.062,0.558 -0.037,1.128 -0.051,1.685 l -0.074,0.211 -0.011,0.386 0.048,0.185 c -0.074,0.611 -0.061,1.219 -0.086,1.816 -0.063,0.387 -0.223,0.757 -0.249,1.14 l -0.049,0.067 -0.05,0.239 -0.249,0.637 c -0.284,0.436 -0.557,0.915 -0.843,1.353 L 92.5,35.478 c -0.21,0.172 -0.421,0.331 -0.596,0.53 h -0.125 c -0.372,0.253 -0.792,0.451 -1.216,0.584 l -0.895,-0.04 -0.123,0.066 -0.521,-0.12 -0.086,0.041 C 88.479,36.38 87.98,36.38 87.521,36.194 87.323,36.101 87.124,35.995 86.912,35.941 l -0.21,-0.145 -0.46,-0.107 -0.236,-0.145 -0.224,-0.026 C 85.548,35.411 85.312,35.267 85.074,35.2 l -0.271,-0.199 -0.745,-0.292 c -0.36,-0.12 -0.734,-0.187 -1.07,-0.345 -0.433,-0.093 -0.868,-0.172 -1.301,-0.292 l -0.139,0.027 c -0.261,-0.08 -0.533,-0.08 -0.806,-0.133 l -0.286,0.027 -0.31,-0.066 -0.521,0.158 -0.026,0.174 0.098,0.171 0.126,0.041 0.433,-0.133 0.486,-0.055 0.856,0.188 0.373,0.011 0.161,0.094 0.111,-0.027 c 0.299,0.094 0.595,0.173 0.895,0.265 l 0.484,0.305 c 0.447,0.133 0.894,0.266 1.342,0.411 l 1.155,0.465 0.335,0.225 0.882,0.372 c 0.769,0.225 1.587,0.265 2.384,0.437 h 0.67 l 0.1,-0.066 c 0.172,0.014 0.359,-0.053 0.533,-0.079 l 0.783,-0.345 c 0.398,-0.345 0.807,-0.677 1.216,-1.009 0.349,-0.463 0.609,-0.981 0.919,-1.485 0.1,-0.265 0.186,-0.543 0.285,-0.821 0.076,-0.359 0.187,-0.703 0.238,-1.062 0,-0.211 0.036,-0.41 -0.015,-0.609 0.088,-0.359 0.077,-0.718 0.124,-1.088 l 0.015,-1.287 0.061,-0.265 c 0,-0.225 0,-0.45 0.024,-0.676 l -0.073,-0.675 0.049,-0.306 -0.038,-0.77 c 0.076,-0.583 -0.011,-1.179 0.05,-1.776 l 0.063,-0.133 0.111,-0.053 0.148,0.039 0.149,0.226 0.039,0.557 -0.063,0.133 -0.012,0.676 0.036,0.052 c -0.049,0.559 -0.024,1.155 -0.049,1.711 0.111,0.425 0.025,0.956 0.013,1.406 -0.075,0.994 -0.161,1.923 -0.212,3.025 -0.099,0.277 -0.062,0.555 -0.099,0.808 -0.197,0.463 -0.398,0.928 -0.569,1.406 -0.114,0.331 -0.286,0.689 -0.534,0.901 -0.202,0.372 -0.536,0.664 -0.808,0.916 -0.349,0.184 -0.685,0.556 -1.056,0.755 -0.386,0.345 -0.98,0.464 -1.465,0.452 h -0.832 c -0.422,-0.08 -0.807,-0.133 -1.218,-0.199 -0.26,-0.133 -0.633,0.026 -0.819,-0.253 -0.36,-0.053 -0.645,-0.305 -0.993,-0.399 l -0.037,0.041 c -0.175,-0.173 -0.448,-0.331 -0.683,-0.424 -0.299,-0.08 -0.558,-0.279 -0.845,-0.345 l -0.037,0.054 c -0.274,-0.173 -0.583,-0.253 -0.87,-0.425 -0.98,-0.331 -1.988,-0.583 -3.004,-0.769 -0.199,-0.173 -0.459,-0.159 -0.682,-0.08 -0.149,0.039 -0.238,0.147 -0.199,0.331 0.06,0.133 0.236,0.148 0.345,0.107 0.598,-0.026 1.194,0.173 1.791,0.198 1.501,0.319 2.818,1.194 4.257,1.698 0.15,0.212 0.436,0.199 0.61,0.344 0.234,0.041 0.471,0.187 0.695,0.187 0.236,0.106 0.484,0.145 0.72,0.266 0.448,0.039 0.883,0.198 1.341,0.105 0.31,-0.04 0.608,0.093 0.869,-0.04 0.609,-0.131 1.228,-0.385 1.726,-0.836 0.448,-0.371 0.869,-0.808 1.303,-1.193 0.522,-0.583 0.721,-1.392 1.093,-2.095 0.176,-1.273 0.586,-2.627 0.448,-3.978 l 0.049,-0.054 c 0.013,-0.372 -0.049,-0.676 -0.037,-1.034 0.112,-0.424 -0.025,-0.849 0.063,-1.273 -0.063,-0.863 0.073,-1.883 -0.013,-2.877 0.113,-0.28 0.36,-0.067 0.559,-0.067 l 0.049,1.194 c -0.161,1.538 0.1,3.116 -0.148,4.614 -0.163,0.199 -0.148,0.505 -0.125,0.743 -0.087,0.212 0,0.451 0,0.717 -0.112,0.344 -0.087,0.742 -0.123,1.126 -0.274,0.584 -0.25,1.327 -0.597,1.856 -0.098,0.292 -0.248,0.506 -0.322,0.796 -0.362,0.385 -0.523,0.796 -0.906,1.154 -0.424,0.133 -0.51,0.744 -0.907,0.836 -0.497,0.358 -1.044,0.61 -1.576,0.862 -0.263,-0.053 -0.46,0.119 -0.721,0.131 -0.635,0.054 -1.254,-0.091 -1.876,-0.131 -1.006,-0.266 -1.951,-0.744 -2.955,-1.009 -0.274,-0.078 -0.485,-0.357 -0.758,-0.45 -0.758,-0.464 -1.614,-0.769 -2.459,-1.035 -0.347,0.027 -0.67,-0.252 -1.03,-0.238 -0.311,-0.066 -0.609,-0.159 -0.92,-0.106 -0.1,0.146 0.051,0.252 0.102,0.344 0.31,0 0.643,0.027 0.942,0.12 0.708,0.066 1.393,0.279 1.999,0.676 0.808,0.358 1.565,0.954 2.384,1.194 0.807,0.332 1.565,0.702 2.421,0.888 l 0.076,-0.039 c 0.273,0.131 0.533,0.159 0.82,0.159 0.447,-0.12 0.88,0.145 1.339,0.039 0.312,-0.092 0.636,-0.052 0.869,-0.239 0.957,-0.278 1.815,-0.755 2.56,-1.564 0.421,-0.636 0.918,-1.22 1.191,-1.948 0.074,-0.479 0.151,-0.969 0.335,-1.407 0.062,-0.173 0.1,-0.358 0.186,-0.53 0.214,-0.862 0.15,-1.765 0.347,-2.627 0,-0.928 0.125,-1.856 0.163,-2.73 l -0.062,-0.174 c 0.1,-0.623 0,-1.194 0.062,-1.749 -0.038,-0.505 -0.075,-0.995 -0.012,-1.5 0.124,0.041 0.284,-0.079 0.398,0.027 0.135,0.305 -0.014,0.677 0.073,0.994 -0.063,0.823 0.076,1.631 0.051,2.454 -0.088,0.251 -0.077,0.571 -0.077,0.809 0.124,0.332 0.015,0.688 0.088,1.02 0.062,0.744 -0.048,1.552 0.088,2.282 0.111,0.901 -0.036,1.83 -0.036,2.745 -0.114,0.941 -0.449,1.816 -0.585,2.772 -0.284,0.782 -0.721,1.406 -1.019,2.188 -0.347,0.623 -0.782,1.219 -1.13,1.83 -0.236,0.265 -0.558,0.397 -0.781,0.649 -0.572,0.757 -1.478,1.047 -2.212,1.473 -0.074,0.079 -0.172,-0.054 -0.222,0.093 l -0.684,0.092 c -0.732,-0.04 -1.601,0.318 -2.236,-0.119 l -0.086,0.052 c -0.285,-0.133 -0.645,-0.105 -0.894,-0.317 -0.434,-0.305 -0.994,-0.279 -1.39,-0.663 -0.099,0.013 -0.149,0.132 -0.199,0.212 0.036,0.305 0.422,0.264 0.582,0.503 0.97,0.292 1.888,0.69 2.908,0.862 0.446,0.054 0.844,-0.118 1.254,-0.079 0.322,0 0.632,-0.119 0.944,-0.211 0.347,-0.293 0.818,-0.307 1.166,-0.597 0.373,-0.438 0.906,-0.729 1.341,-1.074 0.323,-0.319 0.646,-0.638 0.93,-0.995 0.46,-0.663 0.983,-1.367 1.429,-2.031 0.224,-0.57 0.349,-1.271 0.609,-1.868 0.275,-0.85 0.436,-1.712 0.485,-2.627 -0.039,-0.715 0.185,-1.458 0.086,-2.188 -0.075,-2.599 -0.063,-5.21 -0.162,-7.811 0.076,-0.225 -0.061,-0.583 0.224,-0.663 0.087,0.133 0.334,0.08 0.334,0.293 0.014,1.737 0.065,3.46 0.037,5.197 -0.097,0.252 0,0.544 -0.047,0.836 0.136,0.968 -0.025,2.042 0.136,3.024 -0.126,0.636 -0.011,1.273 -0.149,1.909 l -0.126,0.73 c -0.073,0.531 -0.185,1.047 -0.359,1.539 -0.459,1.074 -0.609,2.399 -1.577,3.195 -0.013,0.199 -0.236,0.199 -0.248,0.411 -0.397,0.465 -0.733,0.995 -1.204,1.38 -0.175,0.014 -0.15,0.291 -0.348,0.212 -0.199,0.317 -0.583,0.265 -0.697,0.649 -0.223,-0.012 -0.348,0.186 -0.496,0.292 l 0.014,0.013 c -0.137,0.24 -0.398,0.08 -0.524,0.346 -0.211,0 -0.344,0.132 -0.532,0.145 -0.176,0.12 -0.385,0.159 -0.57,0.252 -0.424,0.147 -0.896,0.04 -1.305,0.159 -0.359,0.054 -0.732,-0.106 -1.094,0 -1.092,-0.344 -2.21,-0.689 -3.276,-1.14 -0.062,0.172 -0.125,0.345 0.061,0.464 l 0.968,0.332 c 0.212,0.092 0.41,0.251 0.647,0.304 0.621,0.226 1.242,0.266 1.873,0.398 0.25,0 0.472,0.12 0.709,0.027 0.819,0.146 1.477,-0.146 2.16,-0.425 0.783,-0.199 1.441,-0.688 2.111,-1.153 0.51,-0.796 1.255,-1.248 1.765,-2.003 0.459,-0.265 0.633,-0.836 0.868,-1.272 0.448,-0.544 0.558,-1.313 0.869,-1.923 0.185,-0.968 0.621,-1.843 0.709,-2.838 0.036,-0.65 0.31,-1.367 0.111,-2.017 -0.075,-0.875 -0.149,-1.724 -0.199,-2.599 -0.088,-0.689 0.112,-1.247 0,-1.923 0.124,-0.557 -0.111,-1.14 0.088,-1.683 -0.111,-0.624 -0.038,-1.155 -0.062,-1.751 0.024,-0.346 -0.077,-0.756 -0.15,-1.128 0.174,-0.212 0.411,-0.145 0.62,-0.066 0.162,0.61 0.051,1.247 0.088,1.884 -0.11,0.423 -0.049,0.715 -0.049,1.167 0.135,1.432 -0.087,2.864 0.084,4.284 -0.011,1.047 0.213,2.16 0.497,3.155 0.225,0.438 0.398,0.968 0.823,1.26 0.234,0.517 0.817,0.596 1.03,1.14 0.719,0.544 1.365,1.233 2.037,1.843 0.322,0.399 0.57,0.863 0.954,1.207 0.771,1.074 1.38,2.228 1.863,3.462 0.335,0.543 0.309,1.166 0.485,1.763 0.036,0.729 0.124,1.46 0.099,2.202 -0.136,0.53 -0.099,1.141 -0.323,1.631 -0.31,0.571 -0.548,1.207 -0.869,1.79 -0.174,0.278 -0.424,0.516 -0.497,0.849 -0.435,0.703 -0.993,1.207 -1.317,1.989 0.026,0.093 0.113,0.198 0.199,0.212 0.572,-0.888 1.291,-1.71 1.74,-2.705 0.247,-0.611 0.756,-0.995 0.942,-1.619 0.273,-0.822 0.646,-1.643 0.621,-2.519 -0.061,-0.901 -0.037,-1.976 -0.348,-2.877 -0.247,-0.583 -0.298,-1.301 -0.732,-1.804 -0.149,-0.344 -0.287,-0.689 -0.519,-0.994 -0.301,-0.744 -0.984,-1.181 -1.282,-1.909 l -0.248,-0.214 c -0.397,-0.875 -1.055,-1.444 -1.762,-2.067 -0.447,-0.173 -0.647,-0.664 -1.043,-0.944 -0.398,-0.29 -0.722,-0.741 -1.045,-1.073 -0.359,-0.557 -0.544,-1.233 -0.794,-1.816 l 0.073,-0.04 -0.097,-0.531 c -0.05,-0.955 -0.125,-1.922 -0.199,-2.85 -0.1,-0.253 -0.061,-0.624 0.038,-0.876 0,-0.809 -0.077,-1.632 -0.077,-2.44 l 0.077,-0.385 -0.05,-0.079 c -0.013,-0.676 -0.027,-1.314 -0.088,-1.963 0.061,-0.212 0.287,-0.146 0.411,-0.12 0.26,0.452 0.063,1.035 0.187,1.499 -0.015,1.512 0.084,3.024 0.022,4.536 0.076,0.994 0.226,1.975 0.262,2.957 l 0.111,0.571 c 0.112,0.172 0.248,0.37 0.325,0.543 0.21,0.954 0.992,1.684 1.712,2.241 0.198,-0.041 0.198,0.199 0.347,0.266 0.673,0.677 1.353,1.351 2.012,2.068 0.373,0.955 1.254,1.645 1.653,2.586 0.397,0.451 0.595,1.034 0.881,1.552 0.148,0.529 0.298,1.14 0.447,1.683 0.224,0.504 0.112,1.061 0.198,1.592 0.186,1.114 -0.148,2.307 -0.52,3.368 -0.212,0.478 -0.496,0.875 -0.708,1.326 -0.362,0.371 -0.547,0.902 -0.807,1.366 -0.237,0.491 -0.683,0.862 -0.933,1.34 0,0.251 -0.297,0.397 -0.211,0.663 0.075,0.106 0.199,0.173 0.311,0.145 0.248,-0.756 0.869,-1.379 1.229,-2.082 0.113,-0.172 0.334,-0.304 0.396,-0.53 0.436,-0.649 0.834,-1.353 1.107,-2.056 0.05,-0.49 0.31,-0.968 0.31,-1.459 0.175,-0.357 0.099,-0.768 0.123,-1.139 0,-0.611 0,-1.221 -0.05,-1.818 -0.172,-1.63 -0.892,-3.102 -1.575,-4.535 -0.46,-0.676 -0.77,-1.445 -1.28,-2.081 l -0.782,-0.837 c -0.15,-0.132 -0.409,-0.158 -0.485,-0.424 -0.432,-0.265 -0.731,-0.822 -1.104,-1.127 -0.571,-0.437 -1.081,-1.021 -1.479,-1.658 -0.073,-0.305 -0.248,-0.57 -0.394,-0.836 -0.164,-0.555 -0.437,-1.047 -0.475,-1.67 -0.1,-0.835 -0.359,-1.712 -0.333,-2.586 -0.014,-0.291 -0.138,-0.676 0,-1.007 -0.113,-0.705 -0.051,-1.407 -0.124,-2.109 0,-0.372 0.011,-0.822 0.037,-1.233 l -0.051,-0.04 c 0.124,-0.358 -0.172,-0.729 0.037,-1.075 0.164,0 0.349,-0.066 0.472,0.053 0.101,0.492 -0.1,1.009 0.112,1.5 -0.088,0.437 0.075,0.822 -0.037,1.232 0.026,1.565 0.174,3.143 0.335,4.709 0.173,0.768 0.248,1.458 0.597,2.148 0.347,0.424 0.396,0.981 0.78,1.392 0.498,0.451 1.056,1.049 1.504,1.591 0.447,0.438 0.906,0.743 1.354,1.181 0.882,0.319 1.788,0.597 2.644,0.981 0.423,0.106 0.906,0.052 1.354,0.106 0.746,0.065 1.564,-0.173 2.333,-0.291 0.647,-0.16 1.279,-0.438 1.901,-0.69 0.77,-0.465 1.627,-0.664 2.409,-1.115 0.61,-0.609 1.315,-1.02 2.012,-1.498 0.87,-0.332 1.439,-1.18 2.322,-1.498 0.658,-0.279 1.326,-0.531 2.072,-0.597 0.522,-0.133 1.032,-0.345 1.59,-0.305 0.597,-0.066 1.193,-0.08 1.788,-0.107 l 0.186,0.107 c 0.077,0.158 0,0.357 -0.135,0.451 -0.223,-0.014 -0.325,0.119 -0.51,-0.04 -0.644,0.079 -1.304,0.054 -1.925,0.133 -0.234,0.12 -0.571,0.133 -0.818,0.238 -0.398,0.054 -0.772,0.146 -1.131,0.227 -0.421,0.224 -0.956,0.423 -1.378,0.741 -0.747,0.517 -1.539,0.916 -2.236,1.485 -0.545,0.106 -0.806,0.717 -1.254,0.983 -0.298,0.051 -0.47,0.371 -0.744,0.424 -0.434,0.251 -0.907,0.371 -1.355,0.53 -0.907,0.317 -1.625,0.981 -2.582,1.14 -0.149,-0.053 -0.335,0.121 -0.471,0.027 -0.683,0.226 -1.403,0.226 -2.109,0.317 -0.388,-0.251 -0.808,0.015 -1.194,-0.184 -0.347,-0.027 -0.721,-0.16 -1.045,-0.266 -0.209,-0.158 -0.483,-0.278 -0.781,-0.266 -0.138,0.174 0.149,0.252 0.175,0.411 0.459,0.148 0.893,0.452 1.401,0.399 0.398,0.16 0.77,0 1.178,0.079 l 0.102,-0.066 c 0.484,0.106 0.945,0.053 1.416,0.066 0.161,-0.026 0.335,-0.158 0.497,-0.066 0.981,-0.291 2.047,-0.345 3.005,-0.809 0.435,-0.345 0.906,-0.557 1.39,-0.795 1.081,-0.57 1.974,-1.42 2.992,-2.057 0.758,-0.423 1.541,-0.98 2.333,-1.325 0.361,-0.371 0.897,-0.371 1.329,-0.557 1.145,-0.2 2.287,-0.266 3.43,-0.371 l 0.31,0.039 c 0.099,0.08 0.11,0.254 0.074,0.385 0,0.092 -0.074,0.2 -0.175,0.172 -0.508,-0.053 -1.092,-0.039 -1.576,0.119 -0.111,-0.119 -0.174,0.053 -0.298,-0.039 -1.181,0.213 -2.458,0.451 -3.551,1.087 -0.199,0.133 -0.535,0.226 -0.509,0.518 0.323,0.265 0.609,0.584 0.957,0.756 0.421,-0.479 0.993,-0.612 1.462,-0.995 0.585,-0.159 1.169,-0.424 1.752,-0.531 0.623,-0.225 1.306,-0.251 1.974,-0.225 l 0.112,0.08 c 0.088,0.159 0.037,0.371 -0.05,0.517 -0.409,0.067 -0.806,-0.053 -1.214,-0.027 -0.399,0.173 -0.871,0.173 -1.243,0.346 -0.137,0.066 -0.286,0.079 -0.409,0.184 -0.249,-0.051 -0.424,0.12 -0.634,0.172 -0.684,0.558 -1.492,0.917 -2.161,1.447 -0.449,0.185 -0.595,0.716 -1.03,0.901 -0.326,0.437 -0.683,0.876 -1.094,1.233 -0.471,0.53 -0.757,1.221 -1.119,1.844 -0.011,0.305 -0.394,0.477 -0.249,0.783 0.078,0.026 0.125,-0.054 0.188,-0.054 0.435,-0.69 0.87,-1.392 1.292,-2.082 0.558,-0.635 1.118,-1.259 1.64,-1.936 0.421,-0.371 0.807,-0.557 1.192,-0.954 1.053,-0.571 2.061,-1.339 3.289,-1.499 0.485,-0.013 0.969,-0.079 1.454,-0.146 0.136,0.013 0.322,0 0.361,0.158 0.023,0.187 -0.014,0.399 -0.186,0.452 -0.62,-0.08 -1.319,0.041 -1.938,0.132 -0.137,0.081 -0.224,0.212 -0.398,0.186 -1.141,0.504 -2.322,1.074 -3.215,1.989 -0.361,0.187 -0.532,0.623 -0.884,0.835 -0.321,0.439 -0.706,0.836 -0.992,1.327 -0.435,0.358 -0.57,0.889 -0.882,1.34 0.073,0.291 0.348,0.026 0.534,0.039 0.285,-0.477 0.572,-0.901 0.919,-1.366 l 0.037,-0.158 c 0.223,-0.346 0.509,-0.651 0.745,-0.968 0.224,-0.147 0.373,-0.438 0.61,-0.544 0.596,-0.744 1.351,-1.34 2.184,-1.619 0.436,-0.317 0.983,-0.398 1.465,-0.583 0.511,-0.039 1.031,-0.238 1.554,-0.186 0.222,0 0.559,-0.239 0.708,0.081 0.072,0.159 -0.089,0.277 -0.126,0.41"/></g></g></g></svg>